<?xml version="1.0" encoding="UTF-8"?><svg id="Layer_2" xmlns="http://www.w3.org/2000/svg" xmlns:xlink="http://www.w3.org/1999/xlink" viewBox="0 0 1184.02 71.58"><defs><style>.cls-1{fill:#f4f4f5;}.cls-2,.cls-3{fill:#fff;}.cls-4{fill:#ea5361;}.cls-3,.cls-5,.cls-6,.cls-7,.cls-8,.cls-9{fill-rule:evenodd;}.cls-5{fill:#005e6a;}.cls-10{fill:#00529c;}.cls-11,.cls-6{fill:#243e90;}.cls-12{fill:#82b841;}.cls-13{fill:#ee4e2e;}.cls-14{fill:#791d17;}.cls-15{fill:#1cbbee;}.cls-16{fill:#0a97b9;}.cls-17{fill:#b51f2a;}.cls-18{fill:#035675;}.cls-19{fill:#afcc53;}.cls-20{fill:#2b7a3c;}.cls-21{fill:#6a953e;}.cls-22{fill:#e31e30;}.cls-23{fill:#047390;}.cls-24{fill:url(#linear-gradient);}.cls-25{fill:#4d3694;}.cls-7{fill:#f15a23;}.cls-8{fill:#00b1d7;}.cls-26{fill:#010101;}.cls-27{fill:#003a70;}</style><linearGradient id="linear-gradient" x1="198.09" y1="596.8" x2="253.81" y2="623.97" gradientTransform="translate(.55 626.66) rotate(1.21) scale(1 -1)" gradientUnits="userSpaceOnUse"><stop offset="0" stop-color="#fdb913"/><stop offset=".22" stop-color="#ffcb05"/><stop offset=".39" stop-color="#faa61a"/><stop offset=".53" stop-color="#ffcb05"/><stop offset=".65" stop-color="#faa61a"/><stop offset=".65" stop-color="#fbab17"/><stop offset=".69" stop-color="#fdbd0d"/><stop offset=".72" stop-color="#ffc807"/><stop offset=".76" stop-color="#ffcb05"/><stop offset=".8" stop-color="#ffcb05"/><stop offset="1" stop-color="#ffcb05"/></linearGradient></defs><g id="Layer_1-2"><rect class="cls-1" y="1.44" width="125.93" height="69.5"/><rect class="cls-1" x="150.72" y="1.44" width="125.93" height="69.5"/><rect class="cls-1" x="603.19" width="125.93" height="69.5"/><rect class="cls-1" x="753.99" y=".32" width="125.93" height="69.5"/><rect class="cls-1" x="1058.08" y=".56" width="125.93" height="69.5"/><rect class="cls-1" x="907.87" y="2.08" width="125.93" height="69.5"/><path class="cls-11" d="M34.65,20.2c4.05,.08,8.09,1.12,11.77,2.97l.22,.08,.07,.24h0c.29,1.12,.59,2.16,.81,3.29,.22,1.12,.44,2.16,.59,3.29,.22,1.44,.29,2.89,.37,4.25v1.6c-.07,3.69-.66,7.29-1.77,10.82l-.07,.24-.22,.08c-3.6,1.76-7.5,2.73-11.48,2.73h-.37v-1.04h.29c3.75,0,7.5-.88,10.96-2.57,1.54-5.21,1.99-10.66,1.32-16.11-.15-1.04-.37-2.08-.59-3.21s-.44-2-.74-2.97c-3.53-1.76-7.36-2.73-11.25-2.81l.07-.88Zm-11.25,2.97c3.46-1.92,7.28-2.97,11.18-2.97h.07v1.04h-.07c-3.68,0-7.28,.96-10.59,2.81-1.4,3.45-2.13,7.13-2.21,10.9,0,3.93,.74,7.78,2.21,11.3,3.38,1.6,6.99,2.48,10.67,2.57v1.04c-3.9-.08-7.65-1.04-11.18-2.73l-.22-.24c-1.54-3.61-2.28-7.45-2.35-11.46v-.48c.07-3.93,.88-7.86,2.35-11.46l.15-.32Z"/><path class="cls-6" d="M34.87,43.28c-.22-2.81-.07-5.77-.81-8.5-.74-2.57-3.46-4.01-3.53-6.73-.07-2.57,1.77-4.65,4.12-4.73h.22c2.35-.08,4.34,1.92,4.49,4.49,.22,2.73-2.8,4.57-3.6,7.13s-.59,5.53-.88,8.34Z"/><path class="cls-6" d="M35.9,42.56c-.22-2.32,0-4.65,.51-6.97,.66-2.4,2.13-4.41,4.34-5.05,1.54-.48,3.75,1.44,3.38,3.45-.51,2.08-2.13,3.53-4.12,3.69-1.1,.08-1.54,1.04-2.21,1.6,2.43-.16,4.63-1.28,6.4-3.05,.22,1.2,.37,3.13-.51,3.77-1.62,1.28-3.16,.24-5.08,.8-1.03,.48-1.69,1.2-2.72,1.76Z"/><path class="cls-6" d="M33.84,42.56c.22-2.32,.07-4.65-.51-6.97-.74-2.4-2.13-4.41-4.34-5.05-1.54-.48-3.75,1.44-3.38,3.45,.51,2.08,2.13,3.53,4.12,3.69,1.1,.08,1.54,1.04,2.21,1.6-2.35-.16-4.63-1.28-6.4-3.05-.22,1.2-.37,3.13,.51,3.77,1.62,1.28,3.16,.24,5.08,.8,1.03,.48,1.69,1.2,2.72,1.76Z"/><path class="cls-6" d="M41.12,46.25v-.4l.29-.08-.29-.48v-.72l1.25,1.84-.44,.16-.29-.48-.51,.16Zm0-1.68v.72l-.22-.32-.07,.88,.29-.08v.4l-.29,.08-.07,.56-.44,.16,.29-2.4,.44-.16,.07,.16h0Zm-4.05,2.97v-.4h.07c.07,0,.22,0,.29-.08,.07,0,.07-.08,.15-.08,.07-.08,.07-.16,.07-.16,0-.08,0-.16-.07-.16,0-.08-.07-.08-.15-.08h-.37v-.4h.22c.07,0,.15-.08,.15-.08,.07-.08,.07-.24,0-.32q-.07-.08-.15-.08h-.15v-.4h.37c.07,0,.15,0,.22,.08,.07,.08,.15,.08,.15,.16,.07,.08,.07,.16,.07,.24s0,.24-.07,.32c-.07,.08-.15,.16-.22,.24,.15,0,.22,.08,.29,.16,.07,.08,.15,.24,.15,.32s0,.24-.07,.32c0,.08-.07,.16-.15,.24s-.15,.08-.29,.16c-.07-.08-.22-.08-.51,0h0Zm2.57-1.28l.44,.08c0,.24-.07,.4-.22,.64-.15,.16-.29,.24-.51,.24-.22,.08-.51,0-.74-.16-.44-.4-.59-1.12-.29-1.68,.15-.24,.37-.4,.66-.48,.22-.08,.44,0,.66,.16,.15,.08,.22,.24,.29,.4l-.37,.16c0-.08-.07-.16-.22-.24-.07-.08-.22-.08-.29-.08-.15,0-.29,.08-.37,.24s-.07,.4-.07,.64,.15,.4,.22,.56c.07,.08,.22,.16,.37,.16,.07,0,.22-.08,.29-.16,.07-.16,.15-.32,.15-.48Zm-2.57-1.04v.4h-.37v.56h.37v.4h-.37l.07,.56h.29v.4l-.66,.08-.22-2.24,.88-.16q-.07,.08,0,0h0Zm-2.65,1.52v-.4h.22c.07,0,.07-.08,.15-.08,0-.08,.07-.08,.07-.16s0-.16-.07-.24-.07-.08-.15-.08h-.15v-.4c.15,0,.29,0,.37,.08,.15,0,.22,.08,.29,.24s.15,.32,.07,.4c0,.16,0,.24-.07,.4-.07,.08-.07,.16-.15,.24s-.15,.08-.22,.08c-.15-.08-.29-.08-.37-.08h0Zm0-1.36v.4h-.37v.56h.37v.4h-.37v.88h-.44l.07-2.24h.74Zm-3.97,1.12v-.72h.22q.07,0,.15-.08c0-.08,.07-.08,.07-.16v-.16c0-.08-.07-.08-.15-.08s-.15-.08-.29-.08v-.4h.15c.15,0,.29,.08,.44,.16,.07,.08,.15,.16,.22,.24v.4c0,.16-.07,.32-.22,.4-.15,.08-.29,.16-.44,.16,.07,.08,.15,.16,.22,.24,.07,.16,.15,.24,.15,.4l.15,.48-.51-.08-.22-.56c.15-.08,.07-.16,.07-.16h0Zm1.18-1.36l.44,.08-.07,1.2v.4c0,.08,.07,.16,.07,.24,.07,.08,.22,.16,.29,.16s.22,0,.29-.08c.07,0,.15-.08,.15-.16v-.4l.07-1.28,.44,.08-.07,1.2c0,.16,0,.4-.07,.56-.07,.24-.22,.4-.44,.4h-.37c-.15,0-.29-.08-.44-.16-.07-.08-.15-.16-.22-.24-.07-.08-.07-.16-.07-.24v-1.76Zm-3.31,.64l.07-.4,.88,.24-.22,.88c-.15,.08-.29,.16-.44,.16s-.37,0-.51-.08c-.22-.08-.37-.16-.51-.32s-.22-.32-.29-.56-.07-.4,0-.64,.15-.4,.29-.56c.15-.16,.29-.24,.44-.24,.15-.08,.37-.08,.51,0,.22,0,.37,.16,.51,.32s.15,.32,.15,.56h-.44c0-.08,0-.24-.07-.32-.07-.08-.15-.16-.29-.16-.15-.08-.29,0-.44,.08-.15,.16-.29,.32-.29,.48-.07,.24-.07,.4,0,.64,.07,.16,.22,.24,.37,.32h.29c.07,0,.15,0,.29-.08l.07-.24-.37-.08h0Zm2.13-.88l-.74-.16-.29,2.24,.37,.08,.15-.96h.07c.07,0,.15,0,.22,.08,.07,0,.07,.08,.07,.16s.07,.16,.07,.24v-.72h-.15l-.29-.08,.07-.56,.37,.08h0l.07-.4Z"/><path class="cls-6" d="M95.63,42.88v-4.17h1.69v-7.37l-1.69,3.69v-9.3h6.62l1.69,21.24h-6.69v-4.17h-1.62v.08Zm0-17.15v9.22l-1.69,3.69h1.69v4.17h-3.16l-1.32,3.93h-4.12v-4.89l4.56-10.82h-.96l2.65-5.29h2.35Zm-8.68,7.13l2.06-5.37-2.06-1.28v6.65Zm-16.4-2.08c.07-.56,.07-1.2,0-1.76v1.76Zm16.4-4.57v6.57l-.29,.72c-4.05-3.21-10.08-.24-10.45,3.05-.37,3.53,2.13,6.33,8.39,4.25l-2.13,6.25c-8.24,.96-11.4-2.57-11.92-6.73v-2.32c.15-1.04,.37-2.08,.74-3.13,4.05-10.98,10.67-8.5,13.17-8.74l.37-1.2,2.13,1.28h0Zm0,15.71l-2.06,4.89h2.06v-4.89Zm-23.83,4.73c4.41-.96,8.75-6.73,4.41-11.3,1.62-.88,2.72-2.57,3.02-4.49v-1.76c-.29-1.84-1.62-3.29-4.05-3.37l-3.38-.08v4.09h1.4c1.47,0,1.32,4.17-.59,4.17h-.81v3.21c1.99,.4,1.32,3.45,0,4.41v5.13h0Zm7.43-8.66v2.32c-.07-.72-.07-1.52,0-2.32Zm-13.24-12.58l-2.72,5.77,1.18-.08-3.31,15.71h9.42c.44,0,.81-.08,1.18-.16v-5.13c-.22,.16-.44,.24-.74,.24h-3.38l1.1-4.73h2.94v-3.21h-2.35l.96-4.17h1.4v-4.09l-5.66-.16Z"/><path class="cls-27" d="M173.82,36.07c0-1.36,0-2.48-.07-3.53h2.35l.07,1.76h.07c.66-1.28,1.99-2.08,3.31-2,1.32-.08,2.5,.8,3.02,2.16h.07c.29-.56,.81-1.12,1.32-1.44,.66-.48,1.4-.72,2.21-.72,1.77,0,3.6,1.36,3.6,5.05v6.89h-2.65v-6.49c0-1.92-.59-3.13-1.91-3.13-.88,0-1.62,.64-1.91,1.6-.07,.32-.15,.64-.15,.96v7.05h-2.65v-6.73c0-1.6-.59-2.81-1.84-2.81-.88,.08-1.69,.72-1.99,1.68-.07,.32-.15,.64-.15,.96v6.97h-2.65l-.07-8.26Z"/><path class="cls-27" d="M200.08,41.52c0,.96,.07,1.92,.15,2.81h-2.43l-.15-1.28h-.07c-.81,1.04-1.99,1.6-3.16,1.6-1.77,.08-3.24-1.36-3.38-3.29v-.24c0-2.97,2.43-4.49,6.4-4.41v-.16c0-.8-.29-2-2.21-2-1.03,0-1.99,.32-2.87,.88l-.51-1.92c1.18-.72,2.57-1.04,3.9-1.04,3.46,0,4.41,2.4,4.41,4.97l-.07,4.09Zm-2.65-2.89c-1.91-.08-3.75,.4-3.75,2.16-.07,.88,.59,1.6,1.4,1.68h.15c.96,0,1.84-.64,2.13-1.6,.07-.24,.07-.4,.07-.64v-1.6h0Z"/><path class="cls-27" d="M201.92,36.07c0-1.36,0-2.48-.07-3.53h2.35l.15,1.76h.07c.74-1.28,2.06-2.08,3.46-2,1.84,0,3.83,1.36,3.83,5.05v6.97h-2.72v-6.65c0-1.68-.59-2.97-2.06-2.97-.96,0-1.84,.72-2.13,1.76-.07,.32-.15,.64-.15,.96v6.89h-2.72v-8.26Z"/><path class="cls-27" d="M223.47,27.89v13.15c0,1.2,.07,2.48,.07,3.29h-2.43l-.15-1.84h-.07c-.74,1.36-2.06,2.16-3.53,2.08-2.57,0-4.63-2.4-4.63-6.01,0-3.93,2.21-6.25,4.85-6.25,1.18-.08,2.35,.48,3.02,1.52h.07v-5.93h2.8Zm-2.72,9.62c0-.24,0-.56-.07-.8-.22-1.2-1.18-2.08-2.35-2.08-1.77,0-2.72,1.68-2.72,3.85s.96,3.69,2.72,3.69c1.18,0,2.13-.88,2.35-2.08,.07-.32,.07-.56,.07-.88v-1.68Z"/><path class="cls-27" d="M225.46,44.32v-11.78h2.72v11.78h-2.72Z"/><path class="cls-27" d="M230.09,36.39c0-1.6,0-2.73-.07-3.77h2.35l.07,2.24h.07c.37-1.36,1.62-2.32,2.94-2.24h.66v2.57c-.29-.08-.51-.08-.81-.08-1.25,0-2.28,.96-2.43,2.24-.07,.32-.07,.64-.07,.96v6.09h-2.72v-8.02Z"/><path class="cls-27" d="M237.38,44.32v-11.78h2.72v11.78h-2.72Z"/><path class="cls-24" d="M257.24,20.11c-1.32-1.68-2.8-.88-3.97-.32-.51,.24-3.97,2.4-3.97,2.4-1.32,.72-2.94,.32-3.97-.88-.07-.08-.07-.16-.15-.24l-.15-.24c-.22-.4-.44-.88-.74-1.28-.15-.24-.37-.48-.59-.72-1.32-1.44-3.38-2.4-6.84-.64-1.62,1.04-7.06,4.41-7.06,4.41-1.4,.72-3.09,.32-4.05-.96l-.07-.08-.07-.08-.37-.64c-.15-.24-.29-.48-.51-.8-.15-.24-.37-.48-.59-.72-1.32-1.44-3.38-2.4-6.84-.64l-6.99,4.41h0l-3.53,2.24,1.84,2.48c1.1,1.44,2.94,1.84,4.49,1.04l6.25-3.93c5.3-3.21,7.94-.16,9.12,1.92l.15,.16h0v.08l.15,.24c.51,.96,1.47,1.52,2.5,1.52,.59,0,1.1-.24,1.54-.56l6.03-3.77h0c5.37-3.21,8.09,0,9.19,2.08,.07,.16,.22,.32,.29,.48,.51,.88,1.4,1.36,2.35,1.36,.51-.08,1.03-.24,1.47-.56l7.21-4.57c-.66-1.12-1.4-2.16-2.13-3.21Z"/><path class="cls-26" d="M1129.44,40c.07-.88-.37-1.76-1.03-2.16-.22-.16-.51-.24-.81-.24-.37-.08-.74-.08-1.03-.08h-1.4v5.21h1.4c.81,.08,1.54-.16,2.21-.64,.22-.24,.44-.48,.51-.8,.07-.48,.15-.88,.15-1.28m-4.27-7.37v4.49h1.47c1.69,0,2.5-.8,2.5-2.24s-.88-2.16-2.65-2.16h-1.32v-.08h0Zm-1.1,9.3v-8.9c-.07-.16-.15-.32-.29-.4-.22-.08-.44-.08-.66-.08v-.24h3.68c.51,0,.96,0,1.47,.08,.37,.08,.74,.16,1.03,.32,.74,.32,1.18,1.12,1.1,2,0,1.36-.81,2.24-2.5,2.48l-.29,.08c.37,0,.74,.08,1.1,.24,.22,.08,.51,.16,.74,.32,.88,.4,1.4,1.36,1.32,2.4,.07,1.2-.66,2.32-1.77,2.57-.29,.08-.66,.16-1.03,.16-.44,.08-.88,.08-1.32,.08h-3.68v-.24c.44,0,.74-.08,.81-.24,.07-.08,.07-.16,.15-.16,.07-.16,.07-.32,.15-.48"/><path class="cls-26" d="M1132.45,41.04c0,.4,.07,.8,.37,1.2,.22,.32,.51,.48,.88,.48s.74-.08,1.03-.32c.29-.16,.59-.48,.74-.8,.15-.24,.22-.56,.22-.8,.07-.4,.07-.8,.07-1.2v-.72c-.51,0-.96,.08-1.47,.24-.29,.08-.59,.16-.88,.32-.66,.16-1.03,.88-.96,1.6m3.46,1.6c-.07-.24-.15-.56-.15-.88v-.16l-.07,.08c-.07,.08-.22,.24-.29,.32-.15,.08-.22,.16-.37,.32-.22,.24-.51,.4-.81,.48-.29,.08-.59,.16-.88,.16-.51,0-.96-.16-1.32-.48-.22-.16-.37-.4-.44-.64s-.15-.56-.15-.88c0-1.12,.66-1.84,1.99-2.24,.37-.08,.74-.16,1.1-.24s.81-.08,1.32-.16l.07-.96c0-.24,0-.56-.07-.8,0-.16-.07-.4-.15-.56-.22-.4-.74-.64-1.18-.64-.66-.08-1.32,.4-1.47,1.12v.56c0,.08-.07,.08-.07,.16-.15,.08-.29,.16-.44,.08-.44,0-.66-.16-.59-.4,0-.24,.07-.56,.22-.72,.15-.24,.37-.48,.66-.64,.59-.32,1.25-.48,1.99-.48,.66-.08,1.32,.16,1.77,.64,.15,.16,.22,.4,.29,.64,.07,.32,.07,.64,.07,.96v4.57c0,.32,.07,.56,.29,.64s.51,.16,.81,.08c.22,0,.44,0,.66-.08,.15-.08,.29-.24,.29-.48,.07-.32,.07-.64,.07-1.04v-4.01c.07-.4,0-.8-.22-1.12-.22-.24-.44-.32-.74-.24v-.24l1.91-.16v1.68l.07-.16c.22-.48,.59-.88,.96-1.2,.44-.24,.88-.4,1.4-.32,.66-.08,1.4,.24,1.77,.88,.15,.24,.22,.48,.29,.72,.07,.4,.07,.72,.07,1.12v3.05c0,.32,0,.72,.07,1.04,0,.24,.15,.4,.29,.48,.22,.08,.51,.08,.74,.08s.37,0,.59-.08c.15-.08,.29-.24,.29-.48,.07-.32,.07-.64,.07-1.04v-7.21c0-.32,0-.64-.07-.88,0-.16-.15-.32-.29-.4-.22-.08-.44-.08-.66-.08v-.24l2.06-.08c0,.48-.07,.96-.07,1.52v6.33l2.21-2.65c.29-.24,.44-.56,.51-.96,0-.32-.29-.48-.88-.56v-.24h2.94v.24c-.15,0-.29,.08-.44,.08-.15,.08-.29,.16-.44,.24-.15,.08-.22,.16-.37,.24s-.22,.24-.37,.32c-.15,.16-.37,.4-.59,.72l-.74,.88,1.91,3.29c.15,.32,.37,.56,.59,.8,.22,.16,.44,.24,.66,.32v.24h-1.77c-.07-.08-.15-.24-.22-.4l-.29-.56-.22-.4-1.47-2.57-1.1,1.36v.8c0,.32,0,.64,.07,1.04,0,.16,.15,.4,.29,.48,.22,.08,.44,.08,.66,.08v.24h-5.96v-.24c.37,0,.66-.08,.81-.24,.07-.08,.07-.16,.07-.24s.07-.24,.07-.32v-3.77c0-.56-.07-1.12-.22-1.6-.22-.56-.74-.88-1.25-.8-.66,0-1.25,.4-1.54,1.04-.15,.24-.29,.56-.37,.88-.07,.32-.15,.64-.15,.96v2.57c0,.32,0,.72,.07,1.04,0,.16,.15,.4,.29,.48,.22,.08,.44,.08,.66,.08v.24h-3.97c-.29,0-.37,0-.59-.08s-.29-.08-.37-.24"/><path class="cls-26" d="M1075.07,38.08h.59c.59,.08,1.18-.16,1.69-.56,.22-.24,.37-.56,.44-.88,.07-.4,.15-.8,.15-1.28,0-1.76-.74-2.65-2.13-2.65h-.81v5.37h.07Zm0,.4v2.65c0,.32,0,.64,.07,.96,0,.16,.15,.32,.29,.4,.22,.08,.51,.08,.81,.08v.4h-3.83v-.4c.22,0,.51,0,.74-.08,.15-.08,.29-.24,.29-.4,.07-.32,.07-.64,.07-.96v-6.97c0-.32,0-.64-.07-.96,0-.16-.15-.32-.29-.4-.22-.08-.44-.16-.66-.08v-.4h3.6c.96-.08,1.91,.16,2.72,.72,.59,.56,.96,1.36,.81,2.24,.15,1.2-.51,2.4-1.54,2.81-.37,.16-.66,.24-1.03,.24-.44,.08-.96,.08-1.4,.08l-.59,.08Z"/><path class="cls-26" d="M1081.33,38.48h2.8c0-.48,0-.8-.07-1.04,0-.24-.07-.48-.15-.72-.22-.72-.59-1.12-1.1-1.12s-.96,.4-1.18,1.28c-.07,.24-.15,.48-.15,.72-.15,.32-.15,.64-.15,.88m4.41,.48h-4.41c0,.4,0,.88,.07,1.28,.07,.32,.15,.64,.22,.96,.22,.8,.96,1.36,1.69,1.44,.44,0,.81-.16,1.18-.4,.37-.32,.66-.72,.88-1.2l.29,.24c-.22,.56-.66,1.12-1.1,1.44-.51,.32-1.03,.48-1.62,.48-.96,.08-1.84-.32-2.5-1.04-.59-.8-.96-1.84-.88-2.81-.07-1.04,.29-2.08,.88-2.89,.66-.72,1.54-1.12,2.43-1.12,.59,0,1.18,.16,1.69,.48,.44,.32,.81,.8,.96,1.36,.07,.24,.15,.48,.15,.72,.07,.32,.07,.64,.07,1.04"/><path class="cls-26" d="M1086.04,35.51l2.5-.16v1.6c.51-1.04,1.18-1.6,1.91-1.6,.29,0,.59,.08,.81,.32,.22,.24,.29,.48,.29,.8,0,.24-.07,.48-.29,.64-.22,.16-.44,.24-.66,.24-.29,.08-.51-.16-.59-.48,0-.16-.07-.24-.15-.4-.07-.08-.15-.08-.22-.08h0c-.29,0-.51,.24-.74,.64-.07,.24-.22,.48-.22,.72-.07,.32-.07,.56-.07,.88v2.65c0,.32,0,.64,.07,.96,0,.16,.15,.32,.29,.4,.22,.08,.44,.08,.66,.08v.32h-3.68v-.32c.22,0,.44,0,.66-.08,.15-.08,.22-.24,.29-.4,.07-.32,.07-.64,.07-.96v-3.93c.07-.4,0-.8-.15-1.12-.15-.16-.37-.24-.81-.24v-.48h0Z"/><path class="cls-26" d="M1094.49,35.35v1.44c.44-.88,1.32-1.44,2.28-1.44,.88-.08,1.69,.56,1.84,1.52,.22-.48,.59-.88,.96-1.12,.37-.24,.81-.4,1.25-.32,.66-.08,1.32,.24,1.69,.8,.15,.24,.22,.48,.29,.72,.07,.4,.07,.8,.07,1.2v3.13c0,.32,0,.64,.07,.96,0,.16,.15,.32,.29,.4,.22,.08,.44,.08,.66,.08v.32h-3.53v-.32c.22,0,.44,0,.66-.08,.15-.08,.22-.24,.29-.4,.07-.32,.07-.64,.07-.96v-3.05c0-.56-.07-1.12-.29-1.6-.15-.32-.51-.56-.81-.48-.51,0-.96,.32-1.18,.8-.29,.4-.44,.96-.37,1.44v3.05c0,.32,0,.64,.07,.96,0,.16,.15,.32,.29,.4,.22,.08,.44,.08,.66,.08v.32h-3.53v-.32c.22,0,.44,0,.66-.08,.15-.08,.22-.24,.29-.4,.07-.32,.07-.64,.07-.96v-3.29c0-1.44-.37-2.08-1.03-2.08-.44,0-.88,.24-1.1,.72-.29,.48-.51,1.04-.44,1.68v2.89c0,.32,0,.64,.07,.96,0,.16,.15,.32,.29,.4,.22,.08,.44,.08,.66,.08v.32h-3.53v-.32c.22,0,.44,0,.66-.08,.15-.08,.22-.24,.29-.4,.07-.32,.07-.64,.07-.96v-4.01c.07-.4,0-.8-.15-1.12-.15-.16-.37-.24-.81-.24v-.32l2.21-.32Z"/><path class="cls-26" d="M1113.33,35.99v5.61c0,.16,.07,.32,.07,.48,.07,.16,.15,.32,.29,.4,.07,.08,.22,.16,.37,.16,.37,0,.66-.16,.88-.48l.15,.32c-.51,.48-1.1,.72-1.77,.72-.59,.08-1.18-.24-1.47-.8-.07-.16-.07-.24-.15-.4,0-.16-.07-.4-.07-.56v-5.45h-.74v-.4c.22,0,.51-.08,.74-.16,.22-.16,.37-.32,.51-.56s.22-.4,.29-.64c.07-.32,.15-.56,.22-.88l.66-.08v2.32h1.62v.48l-1.62-.08Z"/><path class="cls-26" d="M1108.54,39.92v-1.12c-.74,0-1.4,.16-1.99,.56-.44,.32-.59,.88-.59,1.44,0,.4,.07,.88,.29,1.2,.15,.32,.44,.48,.74,.48s.51-.08,.74-.24,.44-.4,.51-.72c.07-.24,.15-.4,.15-.64,.15-.24,.15-.64,.15-.96m2.43,2.73v.32h-.96c-.29,0-.66,0-.96-.08-.15-.08-.29-.16-.37-.24-.15-.16-.22-.4-.15-.56-.29,.4-.66,.64-1.03,.88-.37,.16-.81,.32-1.18,.32-.51,0-1.1-.16-1.47-.56s-.59-.96-.51-1.52c0-1.2,.74-2,2.13-2.32,.74-.16,1.4-.24,2.13-.24v-.96c.07-.56,0-1.04-.22-1.52-.15-.32-.51-.48-.81-.4-.37-.08-.74,.16-.88,.48-.07,.16-.15,.24-.15,.4,0,.24-.07,.4-.07,.64s-.07,.4-.22,.56-.37,.16-.59,.16c-.59,0-.88-.24-.88-.64,0-.24,.07-.48,.22-.72,.15-.24,.37-.48,.59-.64,.66-.4,1.4-.56,2.13-.56,.66-.08,1.4,.16,1.91,.56,.15,.16,.29,.4,.37,.72s.15,.72,.15,1.12v3.37c0,.4,0,.72,.07,1.12,0,.16,.07,.32,.22,.48,.15-.16,.37-.08,.51-.16"/><path class="cls-26" d="M1119.87,39.92v-1.12c-.74,0-1.4,.16-1.99,.56-.44,.32-.59,.88-.59,1.44,0,.4,.07,.88,.29,1.2,.15,.32,.44,.48,.74,.48s.51-.08,.74-.24,.44-.4,.51-.72c.07-.24,.15-.4,.15-.64,.07-.24,.15-.64,.15-.96m2.43,2.73v.32h-.96c-.29,0-.66,0-.96-.08-.15-.08-.29-.16-.37-.24-.15-.16-.22-.4-.15-.56-.29,.4-.66,.64-1.03,.88-.37,.16-.81,.32-1.18,.32-.51,0-1.1-.16-1.47-.56s-.59-.96-.51-1.52c0-1.2,.74-2,2.13-2.32,.74-.16,1.4-.24,2.13-.32v-.88c.07-.56,0-1.04-.22-1.52-.15-.32-.51-.48-.81-.4-.37,0-.74,.16-.88,.48-.07,.16-.15,.24-.15,.4,0,.24-.07,.4-.07,.64s-.07,.4-.22,.56-.37,.16-.59,.16c-.59,0-.88-.24-.88-.64,0-.24,.07-.48,.22-.72,.15-.24,.37-.48,.59-.64,.66-.4,1.4-.56,2.13-.56,.66-.08,1.4,.16,1.91,.56,.15,.16,.29,.4,.37,.72s.15,.72,.15,1.12v3.37c0,.4,0,.72,.07,1.12,0,.16,.07,.32,.22,.48,.07-.16,.29-.08,.51-.16"/><polygon class="cls-16" points="1149.3 25.09 1149.3 25.65 1158.93 38 1159.3 38.08 1159.37 38.08 1159.52 37.75 1155.4 22.6 1154.67 22.12 1149.3 25.09"/><polygon class="cls-18" points="1149.3 25.65 1158.93 38 1159.3 38.08 1152.17 26.21 1149.3 25.65"/><polygon class="cls-15" points="1154.67 25.33 1152.24 28.54 1153.2 29.02 1155.4 25.81 1155.4 25.81 1154.67 25.33"/><polygon class="cls-23" points="1149.3 28.86 1152.17 29.42 1152.24 28.54 1149.3 28.3 1149.3 28.86"/><polygon class="cls-23" points="1153.2 25.81 1159.37 38.08 1159.52 37.75 1155.4 22.6 1153.2 25.81"/><polygon class="cls-12" points="1164.82 21.8 1171.14 24.93 1171.14 25.89 1160.85 42.8 1160.4 42.96 1160.33 42.96 1160.18 42.56 1164.3 22.12 1164.82 21.8"/><polygon class="cls-21" points="1166.95 26.21 1160.4 42.96 1160.85 42.8 1171.14 25.89 1166.95 26.21"/><polygon class="cls-20" points="1164.3 22.12 1160.18 42.56 1160.33 42.96 1165.77 25.57 1164.3 22.12"/><polygon class="cls-19" points="1166.73 28.22 1166.95 29.42 1171.14 29.1 1171.14 28.14 1171.14 28.14 1166.73 28.22"/><polygon class="cls-21" points="1164.3 25.33 1165.77 28.7 1166.73 28.22 1164.82 25.01 1164.3 25.33"/><polygon class="cls-22" points="1155.25 20.2 1155.55 19.72 1163.57 19.56 1164.08 20.2 1160.26 34.15 1159.96 34.31 1159.96 34.31 1159.74 34.15 1155.25 20.2"/><polygon class="cls-17" points="1155.25 20.2 1158.42 21.88 1158.93 21.16 1155.55 19.72 1155.25 20.2"/><polygon class="cls-14" points="1155.25 20.2 1159.74 34.15 1159.96 34.31 1158.42 21.88 1155.25 20.2"/><polygon class="cls-17" points="1159.89 21.88 1159.96 34.31 1160.26 34.15 1164.08 20.2 1159.89 21.88"/><polygon class="cls-4" points="1163.57 19.56 1158.93 21.16 1159.89 21.88 1164.08 20.2 1163.57 19.56"/><path class="cls-8" d="M782.53,48.42c5.74,0,10.37-5.05,10.37-11.3s-4.63-11.3-10.37-11.3-10.37,5.05-10.37,11.3c-.07,6.17,4.63,11.3,10.37,11.3Z"/><path class="cls-3" d="M776.5,39.6c0,1.84,1.4,3.37,3.16,3.37,1.91,.08,3.75,.08,5.66,0,1.69-.08,3.02-1.52,3.16-3.37,.07-.96,.07-1.92,.07-2.89h0c-.15-1.44-1.25-2.57-2.57-2.65h-6.62c-.22,0-.44-.24-.44-.48h0c0-.24,.22-.48,.44-.48h6.62c-.07-1.68-1.77-2-2.65-2.08h-.44c-1.1,0-2.21,0-3.24,.08-1.69,0-3.09,1.52-3.16,3.37-.07,1.76-.07,3.45,0,5.13h0Zm10-.96v.64c0,.24-.15,.4-.37,.4h0c-.22,0-.37-.16-.37-.4h0v-.64c-.15-.16-.29-.32-.29-.56,0-.4,.29-.72,.66-.72s.66,.32,.66,.72c0,.24-.15,.48-.29,.56Z"/><path class="cls-9" d="M845.27,36.07v2.08s-.66,1.36-2.87,1.68-2.21-1.2-2.06-1.52,.66-.88,2.5-1.28c1.99-.4,2.43-.96,2.43-.96h0Zm2.57-2c0-3.13-2.8-4.65-5.3-4.33-2.35,.24-4.27,1.44-4.85,4.09l2.43,.64c.74-2.4,3.6-3.05,4.78-1.36,.22,.32,.22,.8-.07,1.04-.07,.08-.15,.08-.22,.16-.74,.4-2.06,.32-3.46,.72-5.81,1.76-3.97,7.53,.81,7.37,1.25-.08,2.5-.64,3.38-1.6v1.28h2.35l.15-8.02h0Zm-45.61-1.44c-1.77,0-3.16,1.6-3.16,3.53s1.47,3.45,3.24,3.45,3.16-1.6,3.16-3.45-1.4-3.53-3.24-3.53q.07,0,0,0h0Zm6.25-2.57v11.7c.15,3.45-2.21,6.33-5.37,6.57h-.59c-2.13,.16-4.12-.8-5.52-2.48l1.99-1.92c.88,1.12,2.21,1.68,3.53,1.52,1.62,0,2.94-1.44,2.94-3.21v-1.28c-1.03,.96-2.28,1.52-3.6,1.52-3.16-.16-5.66-3.05-5.52-6.49,.07-3.29,2.5-5.93,5.52-6.01,1.32,0,2.65,.56,3.68,1.52v-1.36l2.94-.08Zm53.7-.16h-3.24l-3.24,7.7-3.68-7.78h-3.24l5.37,10.98-2.87,6.33h3.24l7.65-17.23h0Zm-31.92,2.73c1.77,0,3.16,1.52,3.16,3.45s-1.4,3.45-3.16,3.45-3.16-1.52-3.16-3.45h0c0-1.84,1.4-3.45,3.16-3.45h0Zm-6.18-2.57h3.02v1.36c1.03-.96,2.28-1.52,3.6-1.52,3.16,.16,5.66,3.05,5.52,6.49-.07,3.29-2.5,5.93-5.52,6.01-1.32,0-2.65-.56-3.6-1.52v6.41h-3.02V30.06h0Zm-8.09,2.48c1.84,.08,3.31,1.76,3.24,3.77s-1.62,3.61-3.46,3.53-3.24-1.68-3.24-3.69c0-2,1.54-3.61,3.46-3.61h0Zm0-2.89c-3.31,.08-5.88,3.13-5.81,6.73,.07,3.61,2.87,6.41,6.18,6.33,3.24-.08,5.81-2.97,5.81-6.49-.07-3.69-2.87-6.57-6.18-6.57h0Z"/><path class="cls-25" d="M640.12,46.57c-7.14,.08-13.02-6.17-13.09-13.95v-.4c0-7.86,5.81-14.27,13.09-14.27s13.09,6.33,13.09,14.27h0c.15,7.78-5.59,14.27-12.73,14.35h-.37Zm-8.24-14.27c.07,.48,.07,1.12,.15,1.76,.07,.24,.07,.56,.15,.8,.74,3.77,3.68,6.57,7.21,6.89,2.65,.32,5.22-.88,6.84-3.21,2.35-3.37,2.65-8.02,.74-11.7-2.13-4.17-6.91-5.61-10.74-3.29-.15,.08-.37,.24-.51,.32-2.65,2-3.75,4.89-3.83,8.42Z"/><path class="cls-25" d="M694.48,17.8c7.14-.08,13.02,6.17,13.09,13.95v.48c0,7.86-5.88,14.27-13.09,14.27s-13.09-6.41-13.09-14.27c-.15-7.78,5.59-14.19,12.73-14.35,.15-.08,.22-.08,.37-.08Zm8.24,14.43c-.15-.88-.15-1.76-.37-2.65-.74-3.69-3.53-6.49-6.99-6.97-2.72-.4-5.44,.8-7.14,3.29-2.43,3.53-2.65,7.45-.81,11.38,2.06,4.25,6.84,5.85,10.67,3.69,.74-.4,1.4-.96,1.99-1.6,1.77-2,2.72-4.57,2.65-7.13h0Z"/><path class="cls-25" d="M654.24,18.52h9.93c.44,0,.59,.08,.59,.56v3.53c0,.48-.07,.64-.59,.64-.66-.08-1.25,0-1.99,0,1.99,5.21,3.97,10.26,6.03,15.47,1.91-5.21,3.83-10.26,5.81-15.47h-2.5v-4.65h8.24c-.07,1.12,.15,2.24-.22,3.29-2.06,5.29-4.12,10.58-6.25,15.87-1.1,2.81-2.21,5.53-3.24,8.34-.07,.32-.44,.56-.74,.48-1.54,.16-3.02-.64-3.9-2-.37-.72-.74-1.44-.96-2.16-2.43-6.17-4.93-12.42-7.43-18.6-.07-.4-.44-.64-.81-.56h-1.62c-.22,0-.37-.08-.37-.4,0-1.44,0-2.81,0-4.33Z"/><path class="cls-13" d="M955.03,21.8l-22.73,3.29c-.66,.08-1.1,.72-1.03,1.44v23.49c.15,1.68,1.47,2.89,3.02,2.73h25.82c1.32-.32,2.28-1.6,2.28-3.13V30.22s.07-2.73-2.94-2.73h-24.86c-.59-.16-1.03-.64-1.25-1.28-.07-.48,.07-.48,.51-.48h22.8v-2.65c-.07-.8-.74-1.44-1.47-1.36,0,.08-.07,.08-.15,.08Z"/><path class="cls-2" d="M947.3,48.82c-1.91,0-3.24-.8-5.3-3.05-.37-.4-.37-1.04,0-1.44s.96-.4,1.32,0h0c2.13,2.32,3.16,2.89,4.85,2.4,.96-.32,1.91-1.68,1.91-3.29,.07-1.2-.74-2.08-2.35-2.4-2.94-.64-4.63-1.84-5.08-3.61-.37-1.44,.15-2.97,1.4-4.33l.07-.08c2.72-2.48,5.88-.64,7.14,.72,.37,.4,.44,1.04,.07,1.44s-.96,.48-1.32,.08l-.07-.08c-.15-.08-2.57-2.48-4.63-.64-.66,.56-.96,1.44-.88,2.32,.22,.96,1.54,1.76,3.68,2.16,3.6,.8,3.9,3.37,3.9,4.49-.07,2.32-1.91,4.97-3.6,5.21-.37,0-.74,.08-1.1,.08Z"/><path class="cls-13" d="M971.94,27.41c-.44-.24-.88-.48-1.32-.64-.74-.16-1.47-.56-1.99-1.2-.29-.48-.29-1.2,.07-1.68,.29-.48,.81-.72,1.32-.72,.81,0,1.54,.16,2.28,.56,.22,.08,.44,0,.59-.24h0c.07-.24,0-.48-.22-.64h0c-.81-.48-1.77-.72-2.72-.72-.81,0-1.54,.48-1.99,1.2-.51,.8-.51,1.84,0,2.65,.66,.8,1.47,1.28,2.43,1.52,.37,.08,.74,.32,1.1,.48,.37,.24,.66,.56,.88,1.04,.15,.32,.15,.72,.07,1.12-.07,.16-.15,.4-.22,.56,0,0,0,.08-.07,.08-.37,.56-.96,.88-1.54,.8-.96-.08-1.84-.4-2.57-.96-.15-.08-.29-.16-.37-.24-.22-.16-.44-.08-.59,.16-.15,.24-.07,.48,.07,.64h0c.15,.08,.29,.16,.37,.32,.88,.64,1.99,1.04,3.09,1.12,.88,.08,1.77-.4,2.28-1.2l.07-.16c.15-.24,.22-.48,.29-.8,.15-.56,.15-1.2-.07-1.68-.29-.56-.74-1.04-1.25-1.36Z"/><path class="cls-13" d="M978.42,26.37c-.51-.16-1.03-.08-1.47,.08-.51,.16-1.03,.48-1.47,.88v-4.65c0-.24-.22-.48-.44-.48s-.44,.24-.44,.48v9.54c0,.24,.22,.48,.44,.48s.44-.24,.44-.48v-3.53h0c.44-.64,1.03-1.04,1.69-1.36,.29-.08,.66-.08,1.03,0,.29,.08,.51,.24,.66,.48,.15,.32,.29,.64,.22,1.04v3.45c0,.24,.15,.48,.44,.48h0c.22,0,.44-.24,.44-.48h0v-3.45c0-.56-.15-1.12-.44-1.52-.29-.48-.66-.8-1.1-.96Z"/><path class="cls-13" d="M984.08,26.29c-1.62,0-2.94,1.44-2.94,3.21s1.32,3.21,2.94,3.21,2.94-1.44,2.94-3.21c0-.88-.29-1.68-.88-2.24-.51-.64-1.25-.96-2.06-.96Zm1.47,4.81c-.81,.88-2.13,.88-2.94,0-.37-.4-.59-.96-.59-1.6,0-1.28,.96-2.32,2.06-2.32h0c1.18,0,2.06,1.04,2.06,2.32,.07,.64-.15,1.2-.59,1.6h0Z"/><path class="cls-13" d="M991.29,26.29c-.81,0-1.54,.32-2.06,.96l-.07,.08v-.56c0-.24-.15-.48-.44-.48h0c-.22,0-.44,.24-.44,.48h0v9.06c0,.24,.22,.48,.44,.48h0c.22,0,.44-.24,.44-.48h0v-4.17l.07,.08c1.18,1.28,3.02,1.28,4.19,0s1.18-3.29,0-4.57c-.59-.48-1.4-.88-2.13-.88h0Zm1.47,4.81c-.37,.4-.96,.64-1.47,.64-1.18,0-2.13-1.04-2.13-2.24,0-1.28,.96-2.32,2.06-2.32,1.18,0,2.13,1.04,2.13,2.24,0,.72-.22,1.28-.59,1.68Z"/><path class="cls-13" d="M1000.04,27.17c-.51-.56-1.18-.88-1.84-.88-.74,0-1.4,.32-1.84,.88-.88,1.04-1.1,2.48-.59,3.77,.15,.56,.51,1.04,.96,1.28,.44,.32,1.03,.48,1.54,.48,.66,0,1.32-.16,1.99-.48,.22-.08,.29-.4,.22-.64-.07-.24-.37-.32-.59-.24-.51,.24-1.1,.4-1.62,.4-.37,0-.81-.08-1.1-.32-.29-.24-.51-.56-.66-.88-.07-.24-.15-.56-.15-.88h3.9c.22,0,.88,.08,.51-1.28-.15-.4-.37-.8-.74-1.2Zm-3.68,1.6c.07-.4,.29-.72,.59-.96,.37-.4,.81-.56,1.25-.56s.96,.24,1.25,.56c.22,.24,.44,.64,.59,.96h-3.68Z"/><path class="cls-13" d="M1007.18,28.54c-.15-.48-.37-.96-.74-1.36-.51-.56-1.18-.88-1.84-.88-.74,0-1.4,.32-1.84,.88-.88,1.04-1.1,2.48-.59,3.77,.15,.56,.51,1.04,.96,1.28,.44,.32,1.03,.48,1.54,.48,.66,0,1.32-.16,1.99-.48,.22-.08,.29-.4,.22-.56h0c-.07-.24-.37-.32-.59-.24-.51,.24-1.1,.4-1.62,.4-.37,0-.74-.08-1.1-.32-.29-.24-.51-.56-.66-.88-.07-.24-.15-.56-.22-.88h3.9c.29,0,.96,.08,.59-1.2Zm-4.41,.24c.07-.4,.29-.72,.59-.96,.74-.8,1.84-.8,2.57,0h0c.22,.24,.44,.64,.59,.96h-3.75Z"/><path class="cls-13" d="M973.27,35.03h-6.11v17.8h2.5v-5.29h3.9c1.32,0,2.57-.32,3.75-1.04,1.69-.96,2.72-2.89,2.65-4.97,0-2-.88-3.85-2.43-4.97-1.25-1.04-2.72-1.6-4.27-1.52Zm.81,9.62h-4.41v-6.97h4.19c.59,.08,3.24,.56,3.24,3.69,0,3.29-3.02,3.29-3.02,3.29h0Z"/><path class="cls-13" d="M989.75,40.16v1.28c-2.5-2.24-6.18-1.84-8.24,.96-2.06,2.73-1.69,6.73,.88,8.98,2.13,1.92,5.22,1.92,7.36,0v1.44h2.5v-12.58h-2.5v-.08Zm-3.68,10.18c-2.06,0-3.68-1.76-3.68-4.01s1.62-4.01,3.68-4.01,3.68,1.76,3.68,4.01h0c0,2.24-1.62,4.01-3.68,4.01h0Z"/><polygon class="cls-13" points="993.35 40 996.66 40 1000.56 48.1 1004.31 40 1007.33 40 998.35 58.03 995.48 58.03 998.87 51.3 993.35 40"/><rect class="cls-1" x="301.59" y="1.28" width="125.93" height="69.5"/><rect class="cls-1" x="453.13" y="1.28" width="125.93" height="69.5"/><g id="layer3"><path id="path3242" class="cls-7" d="M330.95,32.14l6.25,8.58-6.25,5.69v-14.27h0Z"/><path id="path3244" class="cls-7" d="M333.45,46.49l4.71-4.33,3.24,4.33h-7.94Z"/><path id="path3248" class="cls-7" d="M330.95,27.57l1.62,2.24,6.69,9.14,2.21-1.92s-1.84-2.32-3.02-4.89c-2.35-5.05-.66-8.18-.66-8.18h-6.84v3.61Z"/><path id="path3250" class="cls-7" d="M340.29,40.4l2.21-2s2.13,3.05,4.56,3.77c3.24,.96,4.63-1.36,4.63-1.36v5.69h-7.06l1.62-1.52s-.81,.64-2.87-.96c-1.18-.88-3.09-3.61-3.09-3.61Z"/><path id="path3262" class="cls-7" d="M340.51,23.96s-.74,1.04-.22,3.61c.51,2.73,2.65,5.69,2.65,5.61,0,0,.15-2.89,1.69-4.57,3.31-3.61,7.06-1.44,7.06-1.44v-3.13l-11.18-.08Z"/><path id="path3298" class="cls-7" d="M351.69,30.94s-2.13-1.92-3.9-1.92c-2.35,0-3.6,2.16-3.6,3.77,0,2.32,1.03,3.61,2.06,4.73,1.47,1.6,3.24,3.37,5.44,1.92v-8.5Z"/><path id="path3249" class="cls-5" d="M375.6,24.2h4.93s4.41,7.21,6.55,10.26,4.49,6.41,4.49,6.41v-14.99c0-.64-1.54-1.6-1.54-1.6h5.74s-1.84,.8-1.84,1.6v21.8s-1.77-1.12-3.83-3.69c-2.28-2.89-10.45-14.59-10.45-14.59v15.15c0,.8,1.54,1.92,1.54,1.92h-5.52s1.54-1.2,1.54-1.92V25.89c-.07-.8-1.62-1.68-1.62-1.68Z"/><path id="path3267" class="cls-5" d="M398.91,24.2h6.33s-1.69,.88-1.69,1.6v18.68c0,.8,1.69,1.92,1.69,1.92h-6.33s1.62-1.2,1.62-1.92V25.81c-.07-.72-1.62-1.6-1.62-1.6Z"/><path id="path3283" class="cls-5" d="M356.91,24.2s1.62,.88,1.62,1.6v18.68c0,.8-1.62,1.92-1.62,1.92h9.42c.59,0,7.21-1.2,7.21-6.73s-5.15-6.01-5.15-6.01c0,0,3.09-.96,3.09-4.73,0-4.09-4.56-4.81-5.15-4.81-1.25,.08-9.42,.08-9.42,.08Zm5,9.14v-6.97h3.83c.59,0,2.65,.72,2.65,3.53,0,2.32-2.06,3.45-2.65,3.45h-3.83Zm0,1.84h4.41c.59,0,4.05,.96,4.05,4.25s-3.46,4.57-4.05,4.57h-4.41v-8.82Z"/></g><g><path id="path236" class="cls-10" d="M543.9,28.13h3.9v15.79h-3.9v-15.79Z"/><g id="g246"><path id="path248" class="cls-10" d="M510.54,20.18h-20.23c-2.48,0-4.41,2.2-4.41,5.01v21.84c0,2.71,1.93,4.91,4.41,5.01h20.32c2.48,0,4.41-2.2,4.41-5.01V25.19c-.09-2.81-2.02-5.01-4.51-5.01m-17.84,29.26h-1.1c-1.38,0-2.39-1.2-2.39-2.71V25.29c.09-1.4,1.01-2.61,2.39-2.61h2.21c2.02,0,3.68,1.9,3.68,4.21,0,1.1-.37,2.1-1.1,2.91l-5.7,6.31,5.33,5.91c.74,.8,1.1,1.8,1.1,2.91,.09,2.5-1.93,4.51-4.41,4.51m16.55-.1h-10.02s1.2-2.71,1.2-4.41c0-2.1-.64-3.91-1.66-5.11l-3.4-3.81,3.49-3.91c1.01-1.1,1.75-2.91,1.75-5.11,0-1.7-.46-3.21-1.1-4.31h2.39c2.02,0,3.68,1.9,3.68,4.21,0,1.1-.37,2.1-1.1,2.91l-5.61,6.31,11.68,12.93c-.37,.2-.83,.3-1.29,.3m2.39-4.01l-8.37-9.32,3.95-4.41c.83-1.1,1.29-2.81,1.29-4.61,0-1.7-.46-3.31-1.1-4.41l1.75,.1c1.38,0,2.39,1.2,2.39,2.71,.09,0,.09,19.94,.09,19.94Z"/></g><g id="g222"><g id="g228"><path id="path230" class="cls-10" d="M517.81,28.18h6.69c2.72,0,4.71,1.28,4.71,4.01,0,2-.96,3.13-2.57,3.69v.08c1.91,.4,2.94,1.52,2.94,3.53,0,3.77-3.09,4.57-5.66,4.57h-6.11v-15.87Zm3.9,6.25h1.1c1.25,0,2.57-.32,2.57-1.68,0-1.44-1.25-1.6-2.5-1.6h-1.1c-.07,0-.07,3.29-.07,3.29Zm0,6.49h1.18c1.4,0,2.87-.24,2.87-1.84,0-1.68-1.54-1.84-2.87-1.84h-1.18v3.69Z"/></g><g id="g232"><path id="path234" class="cls-10" d="M530.45,28.18h6.91c2.57,0,4.71,1.28,4.71,4.01,0,2.08-.88,3.53-2.8,4.01v.08c1.25,.4,1.32,1.52,2.06,3.53l1.4,4.33h-4.05l-.81-2.89c-.81-2.73-1.32-3.37-2.72-3.37h-.81v6.25h-3.9v-15.95h0Zm3.9,6.57h1.03c1.25,0,2.8-.08,2.8-1.84,0-1.44-1.32-1.76-2.8-1.76h-1.03v3.61Z"/></g></g></g></g></svg>