<?xml version="1.0" encoding="utf-8"?>
<!-- Generator: Adobe Illustrator 22.1.0, SVG Export Plug-In . SVG Version: 6.00 Build 0)  -->
<svg version="1.1" id="training" xmlns="http://www.w3.org/2000/svg" xmlns:xlink="http://www.w3.org/1999/xlink" x="0px" y="0px"
	 viewBox="0 0 420 325" style="enable-background:new 0 0 420 325;" xml:space="preserve">
<style type="text/css">
	.st0{fill:#FFFFFF;}
</style>
<g>
	<path class="st0" d="M287.9,229.7c1.2,1.2,3.4,1.2,4.6,0l66.8-66.8c0.7-0.6,1-1.4,1-2.3c0-0.9-0.4-1.7-1-2.3
		c-1.2-1.2-3.4-1.2-4.6,0l-64.5,64.5l-31.1-31.1c-0.6-0.7-1.4-1-2.3-1c-0.9,0-1.7,0.4-2.3,1c-1.3,1.3-1.3,3.4,0,4.6L287.9,229.7z"/>
	<path class="st0" d="M129.8,190.7c-1.8,0-3.3,1.5-3.3,3.3s1.5,3.3,3.3,3.3c1.8,0,3.3-1.4,3.3-3.3
		C133.1,192.2,131.6,190.7,129.8,190.7z"/>
	<path class="st0" d="M129.7,83.7c-20.3,0-36.7,16.5-36.7,36.7c0,1.8,1.5,3.3,3.3,3.3s3.3-1.5,3.3-3.3c0-16.6,13.5-30.1,30.1-30.1
		c7.9,0,15.4,3.2,21.2,9c5.8,5.8,9,13.3,9,21.2c0,13.2-8.9,25.1-21.5,28.9c-7.1,2.1-11.9,8.5-11.9,15.9v2c0,1.8,1.5,3.3,3.3,3.3
		s3.3-1.5,3.3-3.3v-2c0-4.4,2.9-8.3,7.3-9.6c15.4-4.6,26.1-19,26-35.3c0-9.6-3.9-18.8-10.9-25.8S139.3,83.7,129.7,83.7z"/>
	<path class="st0" d="M209.3,56.4c-0.8-0.8-2-1.8-2.3-2.1c-24.8-22.3-56.9-32.5-90.4-28.8c-53.6,6-96.5,49.3-102,103
		c-3,29.4,5.1,58.4,22.6,81.7c16.8,22.3,41,37.8,68.2,43.8l1.2,0.2l30.4,30.4c1.7,1.7,3.9,2.6,6.3,2.6c1.1,0,2.3-0.2,3.4-0.7
		c3.3-1.4,5.5-4.7,5.5-8.3v-23.9l3.1-0.7c4.6-1.1,9.2-2.4,13.7-4l5.3-1.9v6.5c0,12.3,10,22.3,22.3,22.3l46-0.1l34.7,37.8
		c1.9,2,4.9,2.6,7.5,1.5c2.6-1,4.3-3.6,4.3-6.4v-32.8h94.6c12.3,0,22.3-10,22.3-22.3V133.9c0-12.3-10-22.3-22.3-22.3H242l-0.8-2.9
		C235.7,89.9,225.7,72.8,212,59C212,59,210.1,57.2,209.3,56.4z M245.6,140.5c0-6.6-0.6-13.2-1.7-19.8l-0.8-4.7h140.8
		c9.8,0,17.8,8,17.8,17.8v120.3c0,9.8-8,17.8-17.8,17.8H287c-1.3,0-2.3,1.1-2.3,2.3v27.4c0,0,0.6,8-1.6,8.9c-0.4,0.2-1.2,0.5-2.3,0
		c-1.1-0.5-4.3-3.8-5.9-5.4l-0.1-0.1c-0.9-0.9-28.1-30.7-29.7-32.4c-0.5-0.4-1-0.6-1.6-0.6h-46.8c-9.8,0-17.8-8-17.8-17.8v-8.6
		l2.2-1.1c19.2-9.5,35.4-24,46.7-42.3C239.5,183.7,245.6,162.4,245.6,140.5z M241.1,140.6c0,54-38.6,100-91.7,109.5
		c-1.1,0.2-1.9,1.1-1.9,2.2v25.8c0,1.9-1,3.4-2.7,4.1c-0.5,0.3-1.1,0.4-1.7,0.4c-1.1,0-2.1-0.5-3-1.3l-30.9-30.9
		c-0.4-0.3-0.8-0.5-1.2-0.6c-26.8-5.3-50.7-20.3-67.2-42.3c-16.9-22.4-24.6-50.3-21.7-78.5c2.5-24.9,13.8-48.6,31.7-66.7
		C68.7,44.2,92.3,32.7,117.1,30c4.3-0.5,8.7-0.7,12.9-0.7c27.8,0,53.4,9.8,74.1,28.4C227.6,78.8,241.1,109,241.1,140.6z"/>
</g>
</svg>
