<?xml version="1.0" encoding="utf-8"?>
<!-- Generator: Adobe Illustrator 22.1.0, SVG Export Plug-In . SVG Version: 6.00 Build 0)  -->
<svg version="1.1" id="Layer_1" xmlns="http://www.w3.org/2000/svg" xmlns:xlink="http://www.w3.org/1999/xlink" x="0px" y="0px"
	 viewBox="0 0 420 325" style="enable-background:new 0 0 420 325;" xml:space="preserve">
<style type="text/css">
	.st0{fill:#FFFFFF;}
	.st1{fill:#FFFFFF;stroke:#FFFFFF;stroke-width:0;stroke-linecap:round;stroke-linejoin:round;}
</style>
<g id="WEB_DESIGN">
</g>
<g id="APP_DESIGN">
</g>
<g>
	<path class="st0" d="M334,139h-64v14h64V139z M330,149h-56v-6h56V149z"/>
	<path class="st0" d="M168,231c3.3,0,6-2.7,6-6s-2.7-6-6-6s-6,2.7-6,6S164.7,231,168,231z M168,223c1.1,0,2,0.9,2,2s-0.9,2-2,2
		s-2-0.9-2-2S166.9,223,168,223z"/>
	<polygon class="st0" points="160.3,229 159.7,225 133.7,229 134.3,233 	"/>
	<path class="st0" d="M126,239c3.3,0,6-2.7,6-6s-2.7-6-6-6s-6,2.7-6,6S122.7,239,126,239z M126,231c1.1,0,2,0.9,2,2s-0.9,2-2,2
		s-2-0.9-2-2S124.9,231,126,231z"/>
	<circle class="st0" cx="105" cy="124" r="2"/>
	<path class="st0" d="M96,156.5c5.5,0,10-4.5,10-10s-4.5-10-10-10s-10,4.5-10,10S90.5,156.5,96,156.5z M96,140.5c3.3,0,6,2.7,6,6
		s-2.7,6-6,6s-6-2.7-6-6S92.7,140.5,96,140.5z"/>
	<polygon class="st0" points="244.7,219.1 217.7,209.1 216.3,212.9 243.3,222.9 	"/>
	<polygon class="st0" points="289.3,194.6 286.7,191.5 256.7,216.5 259.3,219.6 	"/>
	<path class="st0" d="M252,229c3.3,0,6-2.7,6-6s-2.7-6-6-6s-6,2.7-6,6S248.7,229,252,229z M252,221c1.1,0,2,0.9,2,2s-0.9,2-2,2
		s-2-0.9-2-2S250.9,221,252,221z"/>
	<path class="st0" d="M294,194c3.3,0,6-2.7,6-6s-2.7-6-6-6s-6,2.7-6,6S290.7,194,294,194z M294,186c1.1,0,2,0.9,2,2s-0.9,2-2,2
		c-1.1,0-2-0.9-2-2S292.9,186,294,186z"/>
	<polygon class="st0" points="203.6,214.9 202.4,211.1 174.4,220.1 175.6,223.9 	"/>
	<path class="st0" d="M210,216c3.3,0,6-2.7,6-6s-2.7-6-6-6s-6,2.7-6,6S206.7,216,210,216z M210,208c1.1,0,2,0.9,2,2s-0.9,2-2,2
		s-2-0.9-2-2S208.9,208,210,208z"/>
	<circle class="st0" cx="97" cy="124" r="2"/>
	<path class="st0" d="M388,285c4.4,0,8-3.6,8-8v-10h-42V104.7c0-3.7-3.1-6.7-6.8-6.7H217v-2h5c2.2,0,4-1.8,4-4v-6h20
		c2.2,0,4-1.8,4-4V46c0-2.2-1.8-4-4-4h-27v4h27v20h-72V46h46v-4h-12h-34c-2.2,0-4,1.8-4,4v36c0,2.2,1.8,4,4,4h20v6c0,2.2,1.8,4,4,4
		h5v2H72.8c-3.7,0-6.8,3.1-6.8,6.7V267H24v10c0,4.4,3.6,8,8,8h170v-4H32c-2.2,0-4-1.8-4-4v-6h364v6c0,2.2-1.8,4-4,4H198v4 M194,82
		h-20v-3h20V82z M339,267H81V163h258V267z M339,159H81v-25h258V159z M339,130H81v-11h258V130z M347.2,102c1.5,0,2.8,1.2,2.8,2.7V267
		h-7V115H77v152h-7V104.7c0-1.5,1.3-2.7,2.8-2.7H347.2z M207,98v-2h6v2H207z M222,92v2V92h-24V76h24V92z M246,82h-20v-3h20V82z
		 M246,70v5h-20.1c-0.5-1.7-2-3-3.9-3h-24c-1.9,0-3.5,1.3-3.9,3H174v-5H246z"/>
	<path class="st0" d="M178,62h14V50h-14V62z M182,54h6v4h-6V54z"/>
	<rect x="217" y="57" class="st0" width="24" height="4"/>
	<rect x="230" y="51" class="st0" width="11" height="4"/>
	<circle class="st0" cx="89" cy="124" r="2"/>
	<line class="st1" x1="222" y1="92" x2="222" y2="94"/>
	<line class="st1" x1="208" y1="42" x2="220" y2="42"/>
</g>
<g id="WORDPRESS">
</g>
</svg>
