<?xml version="1.0" encoding="utf-8"?>
<!-- Generator: Adobe Illustrator 22.1.0, SVG Export Plug-In . SVG Version: 6.00 Build 0)  -->
<svg version="1.1" id="Layer_1" xmlns="http://www.w3.org/2000/svg" xmlns:xlink="http://www.w3.org/1999/xlink" x="0px" y="0px"
	 viewBox="0 0 420 325" style="enable-background:new 0 0 420 325;" xml:space="preserve">
<style type="text/css">
	.st0{fill:#FFFFFF;}
</style>
<g id="APP_DESIGN">
</g>
<g id="ECOMMERCE">
</g>
<g>
	<path class="st0" d="M333,156H132v31h201V156z M157,183h-21v-23h21V183z M329,183H161v-23h168V183z"/>
	<path class="st0" d="M333,75h-55v14h55V75z M329,85h-47v-6h47V85z"/>
	<rect x="133" y="80" class="st0" width="23" height="4"/>
	<rect x="179" y="169" class="st0" width="38" height="4"/>
	<circle class="st0" cx="77" cy="62" r="2"/>
	<rect x="225" y="169" class="st0" width="16" height="4"/>
	<rect x="225" y="127" class="st0" width="16" height="4"/>
	<circle class="st0" cx="85" cy="62" r="2"/>
	<path class="st0" d="M315,135c3.3,0,6-2.7,6-6s-2.7-6-6-6s-6,2.7-6,6S311.7,135,315,135z M315,127c1.1,0,2,0.9,2,2s-0.9,2-2,2
		c-1.1,0-2-0.9-2-2S313.9,127,315,127z"/>
	<path class="st0" d="M333,114H132v31h201V114z M157,141h-21v-23h21V141z M329,141H161v-23h168V141z"/>
	<rect x="179" y="127" class="st0" width="38" height="4"/>
	<path class="st0" d="M315,177c3.3,0,6-2.7,6-6s-2.7-6-6-6s-6,2.7-6,6S311.7,177,315,177z M315,169c1.1,0,2,0.9,2,2s-0.9,2-2,2
		c-1.1,0-2-0.9-2-2S313.9,169,315,169z"/>
	<rect x="81" y="133" class="st0" width="22" height="4"/>
	<path class="st0" d="M92,77c-6.6,0-12,5.4-12,12s5.4,12,12,12s12-5.4,12-12S98.6,77,92,77z M92,97c-4.4,0-8-3.6-8-8s3.6-8,8-8
		s8,3.6,8,8S96.4,97,92,97z"/>
	<rect x="81" y="118" class="st0" width="22" height="4"/>
	<path class="st0" d="M68,206h284V54H68V206z M348,202H116V99h232V202z M348,95H116V70h232V95z M72,58h276v8H72V58z M72,70h40v132
		H72V70z"/>
	<circle class="st0" cx="93" cy="62" r="2"/>
	<path class="st0" d="M254.1,241H57c-1.1,0-2-0.9-2-2V42c0-1.1,0.9-2,2-2h173.5l-0.6-4H57c-3.3,0-6,2.7-6,6v197c0,3.3,2.7,6,6,6h104
		v39h-21v4h62v-4h-37v-39h90h4h104c3.3,0,6-2.7,6-6V42c0-3.3-2.7-6-6-6H221v4h142c1.1,0,2,0.9,2,2v197c0,1.1-0.9,2-2,2H257.9
		 M254.1,241 M257.9,241"/>
	<rect x="81" y="148" class="st0" width="22" height="4"/>
	<rect x="81" y="163" class="st0" width="22" height="4"/>
</g>
<line class="st0" x1="254.1" y1="241" x2="257.9" y2="241"/>
<path class="st0" d="M161,245h90v39h-57v4h82v-4h-21v-39h104"/>
</svg>
