<?xml version="1.0" encoding="utf-8"?>
<!-- Generator: Adobe Illustrator 22.1.0, SVG Export Plug-In . SVG Version: 6.00 Build 0)  -->
<svg version="1.1" id="Layer_1" xmlns="http://www.w3.org/2000/svg" xmlns:xlink="http://www.w3.org/1999/xlink" x="0px" y="0px"
	 viewBox="0 0 420 325" style="enable-background:new 0 0 420 325;" xml:space="preserve">
<style type="text/css">
	.st0{fill:#FFFFFF;}
</style>
<g id="WEB_DESIGN">
</g>
<g id="APP_DESIGN">
</g>
<g id="ECOMMERCE">
</g>
<g>
	<path class="st0" d="M213.9,231.5l6,7.4c0.7,0.9,1.8,1.4,3,1.4c0.4,0,0.9,0,1.3-0.2l11.6-4.2c1.5-0.6,2.5-2,2.5-3.7l-0.2-9.6
		c2-1.5,4-3.1,5.8-4.9l9.4,1.8c0.2,0.1,0.5,0.1,0.7,0.1c1.4,0,2.7-0.7,3.4-1.9l6.2-10.7c0.9-1.5,0.7-3.3-0.4-4.5l-6.3-7.2
		c0.6-2.5,1.1-5,1.3-7.5l8.4-4.6c1.4-0.8,2.2-2.5,1.9-4.1l-2.1-12.1c-0.3-1.7-1.6-2.9-3.2-3.2l-9.4-1.5c-1.1-2.3-2.4-4.5-3.8-6.6
		l3.4-8.9c0.6-1.6,0.2-3.3-1.1-4.4l-9.4-7.9c-1.2-1.1-3.1-1.2-4.5-0.4l-8.2,4.9c-2.4-1.1-4.7-1.9-7.2-2.6l-3.1-9
		c-0.6-1.5-2-2.6-3.7-2.6h-12.3c-1.7,0-3.2,1-3.7,2.6l-3.1,9c-2.5,0.7-4.9,1.5-7.2,2.6l-8.2-4.9c-1.4-0.8-3.3-0.6-4.5,0.4l-9.4,7.9
		c-1.2,1.1-1.7,2.9-1.1,4.4l3.4,8.9c-1.4,2.1-2.7,4.3-3.8,6.6l-9.4,1.5c-1.6,0.3-2.9,1.6-3.2,3.2l-2.1,12.1
		c-0.3,1.7,0.5,3.3,1.9,4.1l8.4,4.6c0.2,2.5,0.7,5.1,1.3,7.5l-6.3,7.2c-1.1,1.3-1.2,3.1-0.4,4.5l6.2,10.7c0.8,1.4,2.5,2.2,4.1,1.9
		l9.4-1.8c1.8,1.8,3.8,3.4,5.8,4.9l-0.2,9.5c-0.1,1.6,0.9,3.1,2.5,3.7l11.6,4.2c1.5,0.6,3.3,0.1,4.3-1.2l6-7.4
		C208.7,231.7,211.3,231.7,213.9,231.5z M205.9,227.4l-1.1-0.1l-7.3,9l-11.4-4.2l0.2-11.6l-0.9-0.6c-2.5-1.7-4.8-3.6-6.9-5.8
		l-0.8-0.8l-11.4,2.2l-6.1-10.5l7.6-8.8l-0.3-1c-0.8-2.8-1.3-5.8-1.5-8.8l-0.1-1.1l-10.2-5.6l2.1-12l11.5-1.8l0.4-1
		c1.2-2.8,2.8-5.4,4.5-7.8l0.6-0.9l-4.2-10.8l9.3-7.8l9.9,6l1-0.5c2.7-1.3,5.5-2.4,8.4-3.1l1.1-0.3l3.8-11h12.2l3.8,11l1.1,0.3
		c2.9,0.8,5.7,1.8,8.4,3.1l1,0.5l9.9-6l9.3,7.8l-4.2,10.8l0.6,0.9c1.8,2.5,3.3,5.1,4.5,7.8l0.4,1l11.5,1.8l2.1,12l-10.2,5.6
		l-0.1,1.1c-0.2,3-0.7,5.9-1.5,8.8l-0.3,1l7.6,8.8l-6.1,10.5l-11.4-2.2l-0.8,0.8c-2.1,2.2-4.5,4.1-6.9,5.8l-0.9,0.6l0.2,11.6
		l-11.4,4.2l-7.3-9l-1.1,0.1C211.5,227.7,208.5,227.7,205.9,227.4z"/>
	<circle class="st0" cx="51" cy="61" r="2"/>
	<path class="st0" d="M220.7,51H37c-3.3,0-6,2.7-6,6v214c0,3.3,2.7,6,6,6h164v-4H87V94h245v179H195.2v4H383c3.3,0,6-2.7,6-6V57
		c0-3.3-2.7-6-6-6H219v4h164c1.1,0,2,0.9,2,2v9H35v-9c0-1.1,0.9-2,2-2h183.8 M385,271c0,1.1-0.9,2-2,2h-47V94h49V271z M83,273H37
		c-1.1,0-2-0.9-2-2V94h48V273z M35,90V70h350v20H35z"/>
	<circle class="st0" cx="59" cy="61" r="2"/>
	<path class="st0" d="M227,183c0-9.4-7.6-17-17-17c-9.4,0-17,7.6-17,17c0,9.4,7.6,17,17,17C219.4,200,227,192.4,227,183z M210,196
		c-7.2,0-13-5.8-13-13s5.8-13,13-13s13,5.8,13,13S217.2,196,210,196z"/>
	<circle class="st0" cx="43" cy="61" r="2"/>
	<rect x="188.2" y="78" class="st0" width="42.7" height="4"/>
</g>
</svg>
