<svg xmlns="http://www.w3.org/2000/svg" xmlns:xlink="http://www.w3.org/1999/xlink" viewBox="0 0 104.55 69.12"><defs><style>.cls-1{fill:url(#linear-gradient-2)}.cls-2{fill:url(#linear-gradient-51)}.cls-3{fill:url(#linear-gradient-17)}.cls-4{fill:url(#linear-gradient-43)}.cls-5{fill:url(#linear-gradient-15)}.cls-6{fill:#4c9bd5}.cls-7{fill:url(#linear-gradient-18)}.cls-8{fill:url(#linear-gradient-56)}.cls-9{fill:url(#linear-gradient-40)}.cls-10{fill:url(#linear-gradient-52)}.cls-11{fill:url(#linear-gradient-28)}.cls-12{fill:url(#linear-gradient-14)}.cls-13{fill:url(#linear-gradient-36)}.cls-14{fill:#1b459a}.cls-15{fill:url(#linear-gradient-20)}.cls-16{fill:url(#linear-gradient-6)}.cls-17{fill:url(#linear-gradient-53)}.cls-18{fill:url(#linear-gradient-35)}.cls-19{fill:url(#linear-gradient-48)}.cls-20{fill:url(#linear-gradient-32)}.cls-21{fill:url(#linear-gradient-11)}.cls-22{fill:url(#linear-gradient-50)}.cls-23{fill:url(#linear-gradient-39)}.cls-24{fill:url(#linear-gradient-10)}.cls-25{fill:url(#linear-gradient-49)}.cls-26{fill:url(#linear-gradient-37)}.cls-27{fill:url(#linear-gradient-16)}.cls-28{fill:url(#linear-gradient-31)}.cls-29{fill:url(#linear-gradient-41)}.cls-30{fill:url(#linear-gradient-21)}.cls-31{fill:url(#linear-gradient-25)}.cls-32{fill:url(#linear-gradient-5)}.cls-33{fill:url(#linear-gradient-54)}.cls-34{fill:url(#linear-gradient-45)}.cls-35{fill:url(#linear-gradient-55)}.cls-36{fill:url(#linear-gradient-34)}.cls-37{fill:url(#linear-gradient-7)}.cls-38{fill:url(#linear-gradient-24)}.cls-39{fill:url(#linear-gradient-9)}.cls-40{fill:url(#linear-gradient-22)}.cls-41{fill:url(#linear-gradient-42)}.cls-42{fill:url(#linear-gradient-3)}.cls-43{fill:url(#linear-gradient)}.cls-44{fill:url(#linear-gradient-27)}.cls-45{fill:url(#linear-gradient-33)}.cls-46{fill:url(#linear-gradient-38)}.cls-47{fill:url(#linear-gradient-29)}.cls-48{fill:url(#linear-gradient-30)}.cls-49{fill:url(#linear-gradient-23)}.cls-50{fill:url(#linear-gradient-19)}.cls-51{fill:url(#linear-gradient-4)}.cls-52{fill:url(#linear-gradient-8)}.cls-53{fill:url(#linear-gradient-44)}.cls-54{fill:url(#linear-gradient-47)}.cls-55{fill:url(#linear-gradient-46)}.cls-56{fill:url(#linear-gradient-12)}.cls-57{fill:url(#linear-gradient-13)}.cls-58{fill:url(#linear-gradient-26)}</style><linearGradient id="linear-gradient" x1="-387.15" y1="302.42" x2="-387.15" y2="301.97" gradientTransform="translate(-271.72 -357.01) rotate(-90)" gradientUnits="userSpaceOnUse"><stop offset="0" stop-color="#1b459a"></stop><stop offset=".19" stop-color="#204ea0"></stop><stop offset=".5" stop-color="#2e67b1"></stop><stop offset=".9" stop-color="#458fcd"></stop><stop offset="1" stop-color="#4c9bd5"></stop></linearGradient><linearGradient id="linear-gradient-2" x1="-387.78" y1="303.56" x2="-387.78" y2="303.26" xlink:href="#linear-gradient"></linearGradient><linearGradient id="linear-gradient-3" x1="-386.74" y1="301.11" x2="-386.74" y2="300.69" xlink:href="#linear-gradient"></linearGradient><linearGradient id="linear-gradient-4" x1="-401.36" y1="301.11" x2="-401.36" y2="300.69" xlink:href="#linear-gradient"></linearGradient><linearGradient id="linear-gradient-5" x1="-400.32" y1="303.56" x2="-400.32" y2="303.26" xlink:href="#linear-gradient"></linearGradient><linearGradient id="linear-gradient-6" x1="-399.72" y1="304.75" x2="-399.72" y2="303.57" xlink:href="#linear-gradient"></linearGradient><linearGradient id="linear-gradient-7" x1="-400.96" x2="-400.96" xlink:href="#linear-gradient"></linearGradient><linearGradient id="linear-gradient-8" x1="-388.71" y1="305.28" x2="-388.71" y2="303.57" xlink:href="#linear-gradient"></linearGradient><linearGradient id="linear-gradient-9" x1="-398.5" y1="305.5" x2="-398.5" y2="305.17" xlink:href="#linear-gradient"></linearGradient><linearGradient id="linear-gradient-10" x1="-401.36" y1="322.93" x2="-401.36" y2="322.51" xlink:href="#linear-gradient"></linearGradient><linearGradient id="linear-gradient-11" x1="-388.39" y1="320.04" x2="-388.39" y2="318.87" xlink:href="#linear-gradient"></linearGradient><linearGradient id="linear-gradient-12" x1="-389.6" y1="318.45" x2="-389.6" y2="318.11" xlink:href="#linear-gradient"></linearGradient><linearGradient id="linear-gradient-13" x1="-400.96" y1="321.64" x2="-400.96" y2="321.2" xlink:href="#linear-gradient"></linearGradient><linearGradient id="linear-gradient-14" y1="321.64" y2="321.2" xlink:href="#linear-gradient"></linearGradient><linearGradient id="linear-gradient-15" x1="-386.74" y1="322.93" x2="-386.74" y2="322.51" xlink:href="#linear-gradient"></linearGradient><linearGradient id="linear-gradient-16" x1="-399.39" y1="320.04" x2="-399.39" y2="318.34" xlink:href="#linear-gradient"></linearGradient><linearGradient id="linear-gradient-17" x1="-387.78" y1="320.36" x2="-387.78" y2="320.05" xlink:href="#linear-gradient"></linearGradient><linearGradient id="linear-gradient-18" x1="-400.32" y1="320.36" x2="-400.32" y2="320.05" xlink:href="#linear-gradient"></linearGradient><linearGradient id="linear-gradient-19" x1="-394.05" y1="331.79" x2="-394.05" y2="291.82" xlink:href="#linear-gradient"></linearGradient><linearGradient id="linear-gradient-20" y1="327.43" y2="326.97" xlink:href="#linear-gradient"></linearGradient><linearGradient id="linear-gradient-21" x1="-387.78" y1="328.57" x2="-387.78" y2="328.26" xlink:href="#linear-gradient"></linearGradient><linearGradient id="linear-gradient-22" x1="-386.74" y1="326.12" x2="-386.74" y2="325.69" xlink:href="#linear-gradient"></linearGradient><linearGradient id="linear-gradient-23" x1="-401.36" y1="326.12" x2="-401.36" y2="325.69" xlink:href="#linear-gradient"></linearGradient><linearGradient id="linear-gradient-24" x1="-400.32" y1="328.57" x2="-400.32" y2="328.26" xlink:href="#linear-gradient"></linearGradient><linearGradient id="linear-gradient-25" x1="-399.72" y1="329.76" x2="-399.72" y2="328.58" xlink:href="#linear-gradient"></linearGradient><linearGradient id="linear-gradient-26" x1="-400.96" y1="327.43" x2="-400.96" y2="326.97" xlink:href="#linear-gradient"></linearGradient><linearGradient id="linear-gradient-27" x1="-388.71" y1="330.29" x2="-388.71" y2="328.58" xlink:href="#linear-gradient"></linearGradient><linearGradient id="linear-gradient-28" x1="-398.5" y1="330.51" x2="-398.5" y2="330.17" xlink:href="#linear-gradient"></linearGradient><linearGradient id="linear-gradient-29" x1="-401.36" y1="347.94" x2="-401.36" y2="347.51" xlink:href="#linear-gradient"></linearGradient><linearGradient id="linear-gradient-30" x1="-388.39" y1="345.05" x2="-388.39" y2="343.87" xlink:href="#linear-gradient"></linearGradient><linearGradient id="linear-gradient-31" x1="-389.6" y1="343.46" x2="-389.6" y2="343.12" xlink:href="#linear-gradient"></linearGradient><linearGradient id="linear-gradient-32" x1="-400.96" y1="346.65" x2="-400.96" y2="346.2" xlink:href="#linear-gradient"></linearGradient><linearGradient id="linear-gradient-33" y1="346.65" y2="346.2" xlink:href="#linear-gradient"></linearGradient><linearGradient id="linear-gradient-34" x1="-386.74" y1="347.94" x2="-386.74" y2="347.51" xlink:href="#linear-gradient"></linearGradient><linearGradient id="linear-gradient-35" x1="-399.39" y1="345.05" x2="-399.39" y2="343.34" xlink:href="#linear-gradient"></linearGradient><linearGradient id="linear-gradient-36" x1="-387.78" y1="345.37" x2="-387.78" y2="345.06" xlink:href="#linear-gradient"></linearGradient><linearGradient id="linear-gradient-37" x1="-400.32" y1="345.37" x2="-400.32" y2="345.06" xlink:href="#linear-gradient"></linearGradient><linearGradient id="linear-gradient-38" x1="-372.41" y1="315.26" x2="-372.41" y2="314.81" xlink:href="#linear-gradient"></linearGradient><linearGradient id="linear-gradient-39" x1="-373.04" y1="316.4" x2="-373.04" y2="316.09" xlink:href="#linear-gradient"></linearGradient><linearGradient id="linear-gradient-40" x1="-372" y1="313.95" x2="-372" y2="313.52" xlink:href="#linear-gradient"></linearGradient><linearGradient id="linear-gradient-41" x1="-386.62" y1="313.95" x2="-386.62" y2="313.52" xlink:href="#linear-gradient"></linearGradient><linearGradient id="linear-gradient-42" x1="-385.58" y1="316.4" x2="-385.58" y2="316.09" xlink:href="#linear-gradient"></linearGradient><linearGradient id="linear-gradient-43" x1="-384.98" y1="317.59" x2="-384.98" y2="316.4" xlink:href="#linear-gradient"></linearGradient><linearGradient id="linear-gradient-44" x1="-386.22" y1="315.26" x2="-386.22" y2="314.81" xlink:href="#linear-gradient"></linearGradient><linearGradient id="linear-gradient-45" x1="-373.97" y1="318.11" x2="-373.97" y2="316.4" xlink:href="#linear-gradient"></linearGradient><linearGradient id="linear-gradient-46" x1="-383.76" y1="318.34" x2="-383.76" y2="318" xlink:href="#linear-gradient"></linearGradient><linearGradient id="linear-gradient-47" x1="-386.62" y1="335.77" x2="-386.62" y2="335.34" xlink:href="#linear-gradient"></linearGradient><linearGradient id="linear-gradient-48" x1="-373.65" y1="332.88" x2="-373.65" y2="331.7" xlink:href="#linear-gradient"></linearGradient><linearGradient id="linear-gradient-49" x1="-374.87" y1="331.29" x2="-374.87" y2="330.95" xlink:href="#linear-gradient"></linearGradient><linearGradient id="linear-gradient-50" x1="-386.22" y1="334.48" x2="-386.22" y2="334.03" xlink:href="#linear-gradient"></linearGradient><linearGradient id="linear-gradient-51" x1="-372.41" y1="334.48" x2="-372.41" y2="334.03" xlink:href="#linear-gradient"></linearGradient><linearGradient id="linear-gradient-52" x1="-372" y1="335.77" x2="-372" y2="335.34" xlink:href="#linear-gradient"></linearGradient><linearGradient id="linear-gradient-53" x1="-384.65" y1="332.88" x2="-384.65" y2="331.17" xlink:href="#linear-gradient"></linearGradient><linearGradient id="linear-gradient-54" x1="-373.04" y1="333.19" x2="-373.04" y2="332.89" xlink:href="#linear-gradient"></linearGradient><linearGradient id="linear-gradient-55" x1="-385.58" y1="333.19" x2="-385.58" y2="332.89" xlink:href="#linear-gradient"></linearGradient><linearGradient id="linear-gradient-56" x1="-379.31" y1="344.62" x2="-379.31" y2="304.66" xlink:href="#linear-gradient"></linearGradient></defs><g id="Layer_1-2"><g><g><path class="cls-6" d="M8.89,54.35l6.44,14.58h-2.97l-1.51-3.55H4.36l-1.41,3.55H0l6.01-14.58h2.88Zm-3.67,8.89h4.71l-2.46-5.77-2.24,5.77Z"></path><path class="cls-6" d="M19.52,54.35l8.66,10.18v-10.18h2.76v14.58h-2.42l-8.71-10.34v10.34h-2.76v-14.58h2.47Z"></path><path class="cls-6" d="M37.02,54.35v14.58h-2.82v-14.58h2.82Z"></path><path class="cls-14" d="M55.78,68.93h-4.35v-5.65h-6.56v5.65h-4.36v-14.46h4.36v5.31h6.56v-5.31h4.35v14.46Z"></path><path class="cls-14" d="M74.89,61.69c0,1.35-.31,2.59-.93,3.73s-1.55,2.04-2.78,2.7c-1.23,.67-2.73,1-4.5,1s-3.3-.35-4.54-1.04-2.16-1.61-2.76-2.74c-.6-1.13-.9-2.35-.9-3.64s.3-2.52,.9-3.65c.6-1.13,1.52-2.04,2.76-2.73,1.24-.69,2.76-1.04,4.54-1.04,1.34,0,2.53,.2,3.57,.59,1.05,.4,1.91,.93,2.58,1.61,.67,.68,1.19,1.47,1.53,2.37,.35,.9,.52,1.85,.52,2.84Zm-4.45,0c0-.54-.08-1.04-.24-1.49s-.4-.84-.73-1.17c-.32-.33-.72-.59-1.18-.77-.47-.18-1.01-.28-1.62-.28-1.17,0-2.09,.34-2.75,1.02-.67,.68-1,1.58-1,2.68s.34,2,1.01,2.69,1.59,1.03,2.75,1.03c.8,0,1.48-.16,2.05-.47,.56-.32,.99-.75,1.28-1.31s.44-1.2,.44-1.93Z"></path><path class="cls-14" d="M87.72,64.73c0,.9-.23,1.69-.69,2.35-.46,.66-1.11,1.17-1.94,1.52-.83,.35-1.78,.53-2.85,.53-.3,0-.67-.02-1.1-.06-.43-.04-1.01-.14-1.73-.32-.72-.17-1.47-.43-2.25-.77v-3.55c.73,.45,1.45,.83,2.16,1.13,.71,.3,1.46,.45,2.27,.45,.74,0,1.23-.12,1.45-.37,.22-.25,.33-.48,.33-.69,0-.39-.19-.72-.56-.99s-.92-.54-1.64-.83c-.79-.33-1.49-.7-2.09-1.09-.6-.39-1.09-.89-1.47-1.48s-.57-1.29-.57-2.1,.19-1.48,.57-2.11c.38-.63,.97-1.13,1.75-1.51s1.75-.56,2.88-.56c.81,0,1.55,.08,2.24,.23,.68,.16,1.25,.33,1.7,.53,.45,.19,.75,.35,.92,.46v3.39c-.59-.42-1.25-.8-1.98-1.14-.73-.33-1.5-.5-2.33-.5-.54,0-.94,.1-1.18,.31-.24,.21-.37,.47-.37,.77,0,.29,.12,.53,.37,.74,.24,.21,.68,.46,1.3,.76,1.11,.52,2,.99,2.67,1.41,.67,.42,1.19,.9,1.57,1.45s.57,1.23,.57,2.04Z"></path><path class="cls-14" d="M104.55,57.98h-5.3v10.95h-4.35v-10.95h-5.3v-3.52h14.96v3.52Z"></path></g><g><path class="cls-14" d="M70.08,37.05c0-4.14,3.36-7.5,7.5-7.5s7.5,3.36,7.5,7.5-3.36,7.5-7.5,7.5-7.5-3.36-7.5-7.5Z"></path><path class="cls-6" d="M45.43,7.5c0-4.14,3.36-7.5,7.5-7.5s7.5,3.36,7.5,7.5-3.36,7.5-7.5,7.5-7.5-3.36-7.5-7.5Z"></path><g><g><path class="cls-43" d="M30.25,30.05c.15,.06,.3,.12,.45,.18-.15-.07-.3-.13-.45-.18Z"></path><path class="cls-1" d="M31.54,30.69c.1,.06,.21,.11,.3,.18-.1-.07-.21-.12-.3-.18Z"></path><path class="cls-42" d="M28.97,29.69c.14,.03,.28,.06,.43,.09-.14-.03-.28-.07-.43-.09Z"></path><path class="cls-51" d="M29.39,44.31c-.14,.04-.28,.07-.43,.1,.14-.03,.28-.06,.43-.1Z"></path><path class="cls-32" d="M31.84,43.22c-.1,.07-.21,.12-.3,.18,.1-.06,.21-.11,.3-.18Z"></path><path class="cls-16" d="M33.03,42.2l-1.18,1.02c.43-.3,.82-.64,1.18-1.02Z"></path><path class="cls-37" d="M30.7,43.86c-.15,.07-.3,.12-.45,.18,.15-.06,.3-.11,.45-.18Z"></path><path class="cls-52" d="M33.56,32.54c-.48-.64-1.05-1.21-1.71-1.66l1.19,1.03c.19,.2,.35,.41,.52,.63Z"></path><path class="cls-39" d="M33.45,41.7c.11-.14,.23-.27,.33-.41h0c-.1,.15-.22,.27-.33,.41Z"></path><path class="cls-24" d="M51.21,44.41c-.15-.03-.28-.06-.42-.1,.14,.04,.28,.07,.42,.1Z"></path><path class="cls-21" d="M47.15,31.89l1.18-1.01c-.43,.29-.82,.64-1.18,1.01Z"></path><path class="cls-56" d="M46.73,32.39c-.11,.14-.24,.27-.34,.41,0,0,0,0,0,0,.1-.15,.22-.27,.33-.41Z"></path><path class="cls-57" d="M49.92,44.04c-.15-.06-.31-.11-.45-.18,.14,.07,.3,.12,.45,.18Z"></path><path class="cls-12" d="M49.48,30.23c.14-.07,.3-.13,.45-.18-.15,.06-.31,.12-.45,.18Z"></path><path class="cls-5" d="M50.79,29.78c.14-.03,.28-.07,.42-.09-.15,.03-.28,.06-.42,.09Z"></path><path class="cls-27" d="M46.62,41.56c.48,.64,1.05,1.21,1.71,1.66l-1.19-1.04c-.19-.2-.35-.41-.51-.62Z"></path><path class="cls-3" d="M48.33,30.87c.1-.07,.2-.12,.31-.18-.11,.06-.21,.11-.31,.18Z"></path><path class="cls-7" d="M48.64,43.41c-.11-.06-.21-.11-.31-.18,.1,.07,.2,.12,.31,.18Z"></path><path class="cls-50" d="M27.61,44.55c.47,0,.92-.06,1.36-.14,.14-.03,.28-.06,.43-.1,.29-.08,.58-.16,.86-.27,.15-.06,.3-.11,.45-.18,.29-.13,.57-.29,.84-.45,.1-.06,.21-.11,.3-.18h.01s1.18-1.02,1.18-1.02h0c.15-.16,.27-.33,.41-.5,.11-.14,.23-.27,.33-.41h0c3.36-3.56,9.31-3.54,12.65,.04,.06,.08,.13,.15,.19,.23,.17,.21,.33,.43,.51,.62l1.19,1.04h0c.1,.08,.2,.13,.31,.19,.26,.17,.54,.32,.84,.45,.14,.07,.3,.12,.45,.18,.28,.1,.57,.19,.86,.27,.14,.04,.28,.07,.42,.1,.44,.08,.89,.14,1.36,.14,4.14,0,7.5-3.36,7.5-7.5s-3.36-7.5-7.5-7.5c-.46,0-.92,.06-1.36,.14-.15,.03-.28,.06-.42,.09-.3,.08-.58,.17-.86,.27-.15,.06-.31,.12-.45,.18-.29,.13-.57,.28-.84,.45-.11,.06-.21,.11-.31,.18h0s-1.18,1.02-1.18,1.02h0c-.15,.16-.27,.33-.41,.5-.11,.14-.23,.26-.33,.41,0,0,0,0,0,0-3.35,3.55-9.31,3.54-12.65-.04-.06-.08-.13-.15-.19-.23-.17-.22-.33-.43-.52-.63l-1.19-1.03h-.01c-.1-.08-.21-.13-.3-.19-.27-.17-.55-.32-.84-.45-.15-.07-.3-.13-.45-.18-.28-.1-.57-.19-.86-.27-.14-.03-.28-.07-.43-.09-.44-.08-.89-.14-1.36-.14-4.14,0-7.5,3.36-7.5,7.5s3.36,7.5,7.5,7.5Z"></path></g><g><path class="cls-15" d="M55.25,30.05c.16,.06,.3,.12,.45,.18-.15-.07-.3-.13-.45-.18Z"></path><path class="cls-30" d="M56.54,30.69c.1,.06,.21,.11,.31,.18-.1-.07-.21-.12-.31-.18Z"></path><path class="cls-40" d="M53.97,29.69c.14,.03,.28,.06,.42,.09-.14-.03-.28-.07-.42-.09Z"></path><path class="cls-49" d="M54.4,44.31c-.14,.04-.28,.07-.42,.1,.14-.03,.28-.06,.42-.1Z"></path><path class="cls-38" d="M56.85,43.22c-.1,.07-.21,.12-.31,.18,.1-.06,.21-.11,.31-.18Z"></path><path class="cls-31" d="M58.04,42.2l-1.18,1.02c.43-.3,.82-.64,1.18-1.02Z"></path><path class="cls-58" d="M55.71,43.86c-.15,.07-.3,.12-.45,.18,.16-.06,.3-.11,.45-.18Z"></path><path class="cls-44" d="M58.57,32.54c-.49-.64-1.05-1.21-1.71-1.66l1.19,1.03c.19,.2,.35,.41,.52,.63Z"></path><path class="cls-11" d="M58.45,41.7c.11-.14,.23-.27,.34-.41h0c-.1,.15-.23,.27-.34,.41Z"></path><path class="cls-47" d="M76.22,44.41c-.14-.03-.29-.06-.42-.1,.14,.04,.28,.07,.42,.1Z"></path><path class="cls-48" d="M72.15,31.89l1.18-1.01c-.43,.29-.82,.64-1.18,1.01Z"></path><path class="cls-28" d="M71.74,32.39c-.11,.14-.24,.27-.34,.41,0,0,0,0,0,0,.1-.15,.22-.27,.33-.41Z"></path><path class="cls-20" d="M74.93,44.04c-.15-.06-.3-.11-.45-.18,.14,.07,.3,.12,.45,.18Z"></path><path class="cls-45" d="M74.48,30.23c.14-.07,.3-.13,.45-.18-.15,.06-.3,.12-.45,.18Z"></path><path class="cls-36" d="M75.79,29.78c.14-.03,.28-.07,.42-.09-.14,.03-.28,.06-.42,.09Z"></path><path class="cls-18" d="M71.62,41.56c.48,.64,1.05,1.21,1.71,1.66l-1.19-1.04c-.18-.2-.35-.41-.51-.62Z"></path><path class="cls-13" d="M73.34,30.87c.09-.07,.2-.12,.31-.18-.11,.06-.22,.11-.31,.18Z"></path><path class="cls-26" d="M73.65,43.41c-.11-.06-.22-.11-.31-.18,.09,.07,.2,.12,.31,.18Z"></path></g></g><g><path class="cls-46" d="M43.09,15.31c.15,.06,.3,.12,.45,.18-.15-.07-.3-.12-.45-.18Z"></path><path class="cls-23" d="M44.37,15.95c.1,.06,.21,.11,.31,.18-.09-.07-.2-.12-.31-.18Z"></path><path class="cls-9" d="M41.8,14.95c.14,.03,.28,.06,.43,.1-.15-.03-.28-.07-.43-.1Z"></path><path class="cls-29" d="M42.23,29.57c-.14,.04-.28,.07-.43,.1,.14-.03,.28-.06,.43-.1Z"></path><path class="cls-41" d="M44.68,28.48c-.09,.07-.2,.12-.31,.18,.1-.06,.21-.11,.31-.18Z"></path><path class="cls-4" d="M45.87,27.46l-1.18,1.02c.43-.3,.82-.64,1.18-1.02Z"></path><path class="cls-53" d="M43.54,29.12c-.15,.07-.3,.12-.45,.18,.15-.06,.3-.11,.45-.18Z"></path><path class="cls-34" d="M46.39,17.8c-.48-.64-1.05-1.21-1.71-1.66l1.2,1.03c.19,.2,.35,.41,.51,.63Z"></path><path class="cls-55" d="M46.28,26.96c.11-.14,.24-.26,.34-.41h0c-.1,.15-.23,.27-.34,.41Z"></path><path class="cls-54" d="M64.05,29.67c-.15-.03-.28-.06-.43-.1,.14,.04,.28,.07,.43,.1Z"></path><path class="cls-19" d="M59.98,17.15l1.18-1.01c-.43,.29-.81,.64-1.18,1.01Z"></path><path class="cls-25" d="M59.57,17.65c-.12,.14-.24,.27-.34,.41h0c.1-.15,.22-.27,.34-.41Z"></path><path class="cls-22" d="M62.76,29.3c-.16-.06-.31-.11-.45-.18,.14,.07,.3,.12,.45,.18Z"></path><path class="cls-2" d="M62.31,15.49c.14-.07,.3-.12,.45-.18-.16,.06-.31,.12-.45,.18Z"></path><path class="cls-10" d="M63.62,15.04c.14-.03,.28-.07,.43-.1-.15,.03-.28,.06-.43,.1Z"></path><path class="cls-17" d="M59.45,26.82c.48,.64,1.05,1.21,1.7,1.66l-1.19-1.04c-.18-.2-.35-.41-.51-.62Z"></path><path class="cls-33" d="M61.17,16.13c.1-.07,.21-.12,.31-.18-.1,.06-.21,.11-.31,.18Z"></path><path class="cls-35" d="M61.47,28.67c-.1-.06-.21-.11-.31-.18,.1,.07,.21,.12,.31,.18Z"></path><path class="cls-8" d="M40.44,29.81c.47,0,.92-.06,1.36-.14,.14-.03,.28-.06,.43-.1,.3-.08,.58-.16,.86-.27,.15-.06,.3-.11,.45-.18,.29-.13,.57-.29,.83-.45,.1-.06,.21-.11,.31-.18h0s1.18-1.02,1.18-1.02h0c.15-.16,.28-.33,.41-.5,.11-.14,.24-.26,.34-.41h0c3.36-3.56,9.31-3.54,12.64,.04,.06,.08,.13,.15,.19,.23,.16,.21,.33,.43,.51,.62l1.19,1.04h0s0,0,0,0c.1,.07,.21,.12,.31,.18,.27,.17,.55,.32,.84,.45,.14,.07,.3,.12,.45,.18,.28,.1,.57,.19,.86,.27,.14,.04,.28,.07,.43,.1,.44,.08,.89,.14,1.36,.14,4.14,0,7.5-3.36,7.5-7.5s-3.36-7.5-7.5-7.5c-.47,0-.92,.06-1.36,.14-.15,.03-.28,.06-.43,.1-.29,.07-.58,.16-.86,.27-.16,.06-.31,.12-.45,.18-.29,.13-.57,.28-.84,.45-.1,.06-.21,.11-.31,.18h-.01s-1.18,1.02-1.18,1.02h0c-.15,.16-.28,.33-.41,.5-.12,.14-.24,.26-.34,.41h0c-3.36,3.56-9.31,3.54-12.64-.04-.06-.09-.13-.15-.19-.23-.16-.22-.33-.43-.51-.63l-1.2-1.03h0s0,0,0,0c-.09-.07-.2-.12-.31-.18-.27-.17-.54-.32-.83-.45-.15-.07-.3-.12-.45-.18-.28-.1-.57-.19-.86-.27-.14-.03-.28-.07-.43-.1-.44-.08-.89-.14-1.36-.14-4.14,0-7.49,3.36-7.49,7.5s3.36,7.5,7.49,7.5Z"></path></g></g></g></g></svg>