<?xml version="1.0" encoding="UTF-8"?><svg id="Layer_2" xmlns="http://www.w3.org/2000/svg" viewBox="0 0 365.05 95.25"><defs><style>.cls-1{fill:#fff;}</style></defs><g id="Layer_1-2"><g><g><path class="cls-1" d="M166.57,36.62l13.36,31.18h-6.17l-3.14-7.59h-13.45l-2.92,7.59h-6.13l12.47-31.18h5.98Zm-7.62,19.01h9.77l-5.11-12.34-4.66,12.34Z"/><path class="cls-1" d="M188.61,36.62l17.97,21.76v-21.76h5.72v31.18h-5.02l-18.08-22.11v22.11h-5.72v-31.18h5.13Z"/><path class="cls-1" d="M224.93,36.62v31.18h-5.85v-31.18h5.85Z"/><path class="cls-1" d="M263.86,67.8h-9.03v-12.07h-13.62v12.07h-9.05v-30.93h9.05v11.36h13.62v-11.36h9.03v30.93Z"/><path class="cls-1" d="M303.51,52.31c0,2.89-.65,5.54-1.94,7.97-1.29,2.42-3.22,4.35-5.77,5.78-2.56,1.43-5.67,2.14-9.33,2.14s-6.85-.74-9.42-2.23-4.48-3.44-5.73-5.87c-1.25-2.42-1.87-5.02-1.87-7.79s.62-5.38,1.86-7.8c1.24-2.42,3.15-4.37,5.73-5.85,2.58-1.48,5.72-2.22,9.43-2.22,2.77,0,5.24,.42,7.42,1.27,2.17,.85,3.96,2,5.36,3.45,1.4,1.45,2.46,3.14,3.18,5.07,.72,1.93,1.08,3.95,1.08,6.08Zm-9.22,0c0-1.16-.17-2.22-.5-3.18s-.83-1.79-1.5-2.5c-.67-.71-1.49-1.26-2.46-1.65-.97-.39-2.09-.59-3.36-.59-2.43,0-4.33,.73-5.72,2.19-1.39,1.46-2.08,3.37-2.08,5.73s.7,4.28,2.09,5.75c1.39,1.47,3.29,2.2,5.71,2.2,1.66,0,3.08-.34,4.24-1.01,1.17-.68,2.06-1.61,2.66-2.81s.91-2.57,.91-4.12Z"/><path class="cls-1" d="M330.13,58.81c0,1.93-.48,3.61-1.44,5.02-.96,1.41-2.3,2.5-4.02,3.25-1.72,.75-3.69,1.13-5.91,1.13-.62,0-1.38-.04-2.28-.12-.9-.08-2.1-.31-3.59-.68-1.49-.37-3.05-.92-4.67-1.65v-7.59c1.52,.97,3.01,1.77,4.47,2.41,1.47,.64,3.04,.96,4.71,.96,1.55,0,2.54-.26,3-.79,.46-.53,.68-1.02,.68-1.48,0-.83-.39-1.54-1.17-2.11s-1.91-1.16-3.4-1.77c-1.65-.71-3.09-1.49-4.33-2.33-1.24-.84-2.26-1.89-3.04-3.16-.79-1.26-1.18-2.76-1.18-4.48s.4-3.17,1.19-4.52c.79-1.35,2.01-2.42,3.64-3.22s3.62-1.2,5.98-1.2c1.67,0,3.22,.17,4.65,.5,1.42,.34,2.59,.71,3.52,1.13,.92,.42,1.56,.74,1.91,.98v7.25c-1.23-.91-2.6-1.72-4.1-2.43-1.51-.71-3.12-1.07-4.84-1.07-1.13,0-1.94,.22-2.45,.67-.51,.45-.76,1-.76,1.65,0,.61,.25,1.14,.76,1.58,.5,.45,1.41,.99,2.71,1.63,2.31,1.12,4.16,2.12,5.54,3.01,1.39,.89,2.47,1.92,3.26,3.09s1.18,2.62,1.18,4.36Z"/><path class="cls-1" d="M365.05,44.39h-11v23.41h-9.03v-23.41h-11v-7.52h31.03v7.52Z"/></g><g><path class="cls-1" d="M103.69,79.22c0-8.86,6.97-16.03,15.55-16.03s15.56,7.18,15.56,16.03-6.96,16.03-15.56,16.03-15.55-7.18-15.55-16.03Z"/><path class="cls-1" d="M52.54,16.03c0-8.86,6.97-16.03,15.55-16.03s15.56,7.18,15.56,16.03-6.96,16.03-15.56,16.03-15.55-7.18-15.55-16.03Z"/><g><g><path class="cls-1" d="M21.05,64.26c.32,.13,.62,.25,.93,.39-.31-.14-.61-.27-.93-.39Z"/><path class="cls-1" d="M23.73,65.62c.2,.13,.43,.24,.63,.39-.2-.15-.43-.26-.63-.39Z"/><path class="cls-1" d="M18.39,63.48c.3,.05,.58,.13,.88,.2-.3-.07-.59-.15-.88-.2Z"/><path class="cls-1" d="M19.27,94.74c-.3,.08-.59,.15-.88,.21,.3-.06,.58-.13,.88-.21Z"/><path class="cls-1" d="M24.36,92.42c-.2,.15-.43,.26-.63,.39,.2-.13,.43-.24,.63-.39Z"/><path class="cls-1" d="M26.82,90.24l-2.45,2.18c.9-.63,1.71-1.37,2.45-2.18Z"/><path class="cls-1" d="M21.98,93.78c-.31,.14-.61,.26-.93,.39,.32-.13,.62-.24,.93-.39Z"/><path class="cls-1" d="M27.92,69.57c-1-1.37-2.17-2.59-3.54-3.55l2.46,2.21c.39,.42,.73,.88,1.08,1.34Z"/><path class="cls-1" d="M27.68,89.17c.23-.3,.49-.57,.69-.89h0c-.21,.32-.46,.59-.69,.89Z"/><path class="cls-1" d="M64.54,94.95c-.3-.06-.59-.13-.88-.21,.29,.08,.58,.15,.88,.21Z"/><path class="cls-1" d="M56.11,68.19l2.44-2.17c-.89,.63-1.7,1.37-2.44,2.17Z"/><path class="cls-1" d="M55.25,69.26c-.23,.3-.49,.57-.7,.88,0,0,0,0,0,0,.21-.31,.46-.58,.69-.88Z"/><path class="cls-1" d="M61.87,94.17c-.32-.13-.64-.24-.93-.39,.3,.14,.61,.26,.93,.39Z"/><path class="cls-1" d="M60.94,64.65c.3-.14,.61-.27,.93-.39-.32,.13-.64,.25-.93,.39Z"/><path class="cls-1" d="M63.66,63.68c.29-.07,.58-.15,.88-.2-.3,.05-.58,.13-.88,.2Z"/><path class="cls-1" d="M55.01,88.86c1,1.37,2.18,2.59,3.54,3.55l-2.48-2.22c-.39-.42-.72-.88-1.06-1.33Z"/><path class="cls-1" d="M58.56,66c.2-.15,.42-.26,.64-.39-.22,.13-.44,.24-.64,.39Z"/><path class="cls-1" d="M59.21,92.81c-.22-.13-.44-.24-.64-.39,.2,.15,.42,.26,.64,.39Z"/><path class="cls-1" d="M15.56,95.25c.97,0,1.9-.12,2.82-.3,.3-.06,.58-.13,.88-.21,.6-.16,1.2-.35,1.78-.57,.32-.13,.62-.24,.93-.39,.6-.29,1.18-.61,1.74-.97,.2-.13,.43-.24,.63-.39h.02s2.45-2.19,2.45-2.19h0c.31-.34,.56-.71,.86-1.06,.23-.3,.49-.57,.69-.89h0c6.96-7.6,19.32-7.57,26.25,.08,.12,.18,.27,.32,.39,.49,.35,.46,.68,.92,1.06,1.33l2.48,2.22h.02c.2,.16,.42,.27,.64,.4,.55,.36,1.13,.69,1.73,.97,.3,.14,.61,.26,.93,.39,.58,.22,1.17,.41,1.79,.57,.29,.08,.58,.15,.88,.21,.92,.18,1.86,.3,2.82,.3,8.59,0,15.57-7.18,15.57-16.03s-6.98-16.03-15.57-16.03c-.96,0-1.9,.12-2.82,.3-.3,.05-.59,.13-.88,.2-.61,.17-1.21,.35-1.79,.57-.32,.13-.64,.25-.93,.39-.61,.28-1.19,.61-1.73,.97-.22,.13-.44,.24-.64,.39h0l-.02,.02-2.44,2.17h-.01c-.3,.35-.57,.72-.85,1.07-.23,.3-.49,.56-.69,.88,0,0,0,0,0,0-6.96,7.6-19.31,7.57-26.24-.09-.12-.17-.27-.32-.39-.48-.35-.46-.69-.92-1.08-1.34l-2.46-2.21-.02-.02h0c-.2-.15-.43-.26-.63-.39-.56-.36-1.14-.69-1.74-.97-.31-.14-.61-.27-.93-.39-.58-.22-1.18-.41-1.78-.57-.3-.07-.59-.15-.88-.2-.92-.18-1.85-.3-2.82-.3-8.59,0-15.56,7.18-15.56,16.03s6.97,16.03,15.56,16.03Z"/></g><g><path class="cls-1" d="M72.93,64.26c.32,.13,.63,.25,.94,.39-.31-.14-.61-.27-.94-.39Z"/><path class="cls-1" d="M75.6,65.62c.21,.13,.43,.24,.64,.39-.21-.15-.43-.26-.64-.39Z"/><path class="cls-1" d="M70.27,63.48c.29,.05,.58,.13,.88,.2-.3-.07-.58-.15-.88-.2Z"/><path class="cls-1" d="M71.15,94.74c-.3,.08-.58,.15-.88,.21,.29-.06,.58-.13,.88-.21Z"/><path class="cls-1" d="M76.25,92.42c-.21,.15-.43,.26-.64,.39,.21-.13,.43-.24,.64-.39Z"/><path class="cls-1" d="M78.7,90.24l-2.45,2.18c.9-.63,1.71-1.37,2.45-2.18Z"/><path class="cls-1" d="M73.87,93.78c-.31,.14-.61,.26-.94,.39,.32-.13,.63-.24,.94-.39Z"/><path class="cls-1" d="M79.8,69.57c-1.01-1.37-2.18-2.59-3.54-3.55l2.47,2.21c.39,.42,.73,.88,1.08,1.34Z"/><path class="cls-1" d="M79.56,89.17c.23-.3,.49-.57,.7-.89h0c-.21,.32-.47,.59-.7,.89Z"/><path class="cls-1" d="M116.43,94.95c-.3-.06-.6-.13-.88-.21,.3,.08,.58,.15,.88,.21Z"/><path class="cls-1" d="M107.99,68.19l2.45-2.17c-.9,.63-1.71,1.37-2.45,2.17Z"/><path class="cls-1" d="M107.13,69.26c-.23,.3-.49,.57-.71,.88,0,0,.01,0,.01,0,.21-.31,.46-.58,.69-.88Z"/><path class="cls-1" d="M113.75,94.17c-.31-.13-.63-.24-.93-.39,.3,.14,.61,.26,.93,.39Z"/><path class="cls-1" d="M112.83,64.65c.3-.14,.61-.27,.93-.39-.31,.13-.63,.25-.93,.39Z"/><path class="cls-1" d="M115.55,63.68c.28-.07,.58-.15,.88-.2-.3,.05-.58,.13-.88,.2Z"/><path class="cls-1" d="M106.89,88.86c1,1.37,2.17,2.59,3.54,3.55l-2.48-2.22c-.38-.42-.72-.88-1.06-1.33Z"/><path class="cls-1" d="M110.45,66c.2-.15,.42-.26,.64-.39-.22,.13-.45,.24-.64,.39Z"/><path class="cls-1" d="M111.09,92.81c-.22-.13-.45-.24-.64-.39,.2,.15,.42,.26,.64,.39Z"/></g></g><g><path class="cls-1" d="M47.69,32.74c.32,.13,.63,.25,.94,.39-.31-.14-.62-.27-.94-.39Z"/><path class="cls-1" d="M50.35,34.1c.21,.13,.44,.24,.64,.39-.2-.15-.42-.26-.64-.39Z"/><path class="cls-1" d="M45.01,31.96c.29,.05,.59,.13,.89,.2-.3-.07-.58-.15-.89-.2Z"/><path class="cls-1" d="M45.9,63.23c-.3,.08-.59,.15-.89,.21,.3-.06,.58-.13,.89-.21Z"/><path class="cls-1" d="M50.98,60.91c-.2,.15-.42,.26-.64,.39,.21-.13,.44-.24,.64-.39Z"/><path class="cls-1" d="M53.45,58.72l-2.45,2.18c.9-.63,1.71-1.37,2.45-2.18Z"/><path class="cls-1" d="M48.62,62.27c-.31,.14-.62,.26-.94,.39,.32-.13,.63-.24,.94-.39Z"/><path class="cls-1" d="M54.55,38.06c-1-1.37-2.17-2.59-3.54-3.55l2.48,2.21c.39,.42,.72,.88,1.06,1.34Z"/><path class="cls-1" d="M54.31,57.65c.23-.29,.49-.57,.7-.88h0c-.21,.32-.47,.58-.7,.88Z"/><path class="cls-1" d="M91.17,63.43c-.31-.06-.59-.13-.89-.21,.3,.08,.58,.15,.89,.21Z"/><path class="cls-1" d="M82.73,36.67l2.44-2.17c-.89,.63-1.69,1.37-2.44,2.17Z"/><path class="cls-1" d="M81.88,37.74c-.24,.3-.5,.57-.71,.88h0c.21-.32,.46-.58,.71-.88Z"/><path class="cls-1" d="M88.51,62.65c-.32-.13-.64-.24-.94-.39,.3,.14,.61,.26,.94,.39Z"/><path class="cls-1" d="M87.57,33.13c.3-.14,.61-.27,.94-.39-.32,.13-.64,.25-.94,.39Z"/><path class="cls-1" d="M90.29,32.17c.3-.07,.58-.15,.89-.2-.31,.05-.59,.13-.89,.2Z"/><path class="cls-1" d="M81.64,57.34c1,1.37,2.17,2.59,3.53,3.55l-2.47-2.22c-.38-.42-.72-.88-1.06-1.33Z"/><path class="cls-1" d="M85.2,34.48c.2-.15,.43-.26,.64-.39-.21,.13-.43,.24-.64,.39Z"/><path class="cls-1" d="M85.84,61.29c-.21-.13-.43-.24-.64-.39,.2,.15,.43,.26,.64,.39Z"/><path class="cls-1" d="M42.19,63.73c.98,0,1.91-.12,2.83-.3,.29-.06,.59-.13,.89-.21,.61-.16,1.2-.35,1.79-.57,.32-.13,.63-.24,.94-.39,.6-.29,1.17-.61,1.72-.97,.21-.13,.44-.24,.64-.39h.02s2.45-2.19,2.45-2.19h0c.31-.34,.57-.71,.86-1.07,.23-.29,.49-.56,.7-.88h0c6.96-7.61,19.31-7.57,26.23,.08,.12,.18,.27,.32,.4,.49,.34,.45,.68,.92,1.06,1.33l2.47,2.22h.02s0,.01,0,.01c.2,.15,.43,.26,.64,.39,.56,.36,1.13,.68,1.73,.97,.3,.14,.61,.26,.94,.39,.58,.22,1.17,.41,1.78,.57,.3,.08,.58,.15,.89,.21,.91,.18,1.85,.3,2.82,.3,8.59,0,15.56-7.18,15.56-16.03s-6.97-16.03-15.56-16.03c-.97,0-1.9,.12-2.82,.3-.31,.05-.59,.13-.89,.2-.61,.16-1.2,.35-1.78,.57-.32,.13-.64,.25-.94,.39-.6,.28-1.17,.61-1.73,.97-.21,.13-.43,.24-.64,.39h0l-.02,.02-2.44,2.17h0c-.31,.35-.57,.72-.85,1.07-.24,.3-.5,.56-.71,.88h0c-6.96,7.61-19.32,7.58-26.23-.08-.12-.19-.27-.32-.4-.49-.34-.46-.68-.92-1.06-1.34l-2.48-2.21v-.02h-.02c-.2-.15-.42-.26-.64-.39-.55-.36-1.13-.68-1.72-.97-.31-.14-.62-.27-.94-.39-.58-.22-1.17-.41-1.79-.57-.3-.07-.59-.15-.89-.2-.92-.18-1.84-.3-2.83-.3-8.58,0-15.55,7.18-15.55,16.03s6.96,16.03,15.55,16.03Z"/></g></g></g></g></svg>